<svg width="250" height="155" viewBox="0 0 250 155" fill="none" xmlns="http://www.w3.org/2000/svg">
<path opacity="0.2" d="M134.702 42.8518H122.6L106.465 -34H154.064L134.702 42.8518Z" fill="url(#paint0_linear_1681_62464)"/>
<path opacity="0.2" d="M133.987 77.9724H121.885L105.75 154.824H153.349L133.987 77.9724Z" fill="url(#paint1_linear_1681_62464)"/>
<path opacity="0.2" d="M149.063 50.8426L139.992 44.7133L194.387 -21.0625L230.064 3.04588L149.063 50.8426Z" fill="url(#paint2_linear_1681_62464)"/>
<path opacity="0.2" d="M148.348 67.3723L139.277 73.5015L193.672 139.277L229.349 115.169L148.348 67.3723Z" fill="url(#paint3_linear_1681_62464)"/>
<path opacity="0.2" d="M106.722 49.8504L115.793 43.7211L61.3984 -22.0547L25.7211 2.05369L106.722 49.8504Z" fill="url(#paint4_linear_1681_62464)"/>
<path opacity="0.2" d="M104.582 66.3801L113.652 72.5093L59.2578 138.285L23.5804 114.177L104.582 66.3801Z" fill="url(#paint5_linear_1681_62464)"/>
<path opacity="0.2" d="M147.173 64.4047L145.955 55.1925L244.262 35.1719L249.054 71.4066L147.173 64.4047Z" fill="url(#paint6_linear_1681_62464)"/>
<path opacity="0.2" d="M101.882 64.4047L103.1 55.1925L4.79297 35.1719L0.000561795 71.4066L101.882 64.4047Z" fill="url(#paint7_linear_1681_62464)"/>
<defs>
<linearGradient id="paint0_linear_1681_62464" x1="130.264" y1="-34" x2="130.264" y2="42.8518" gradientUnits="userSpaceOnUse">
<stop stop-color="white" stop-opacity="0"/>
<stop offset="0.498179" stop-color="white" stop-opacity="0.4"/>
<stop offset="1" stop-color="white" stop-opacity="0.8"/>
</linearGradient>
<linearGradient id="paint1_linear_1681_62464" x1="129.55" y1="154.824" x2="129.55" y2="77.9724" gradientUnits="userSpaceOnUse">
<stop stop-color="white" stop-opacity="0"/>
<stop offset="0.498179" stop-color="white" stop-opacity="0.4"/>
<stop offset="1" stop-color="white" stop-opacity="0.8"/>
</linearGradient>
<linearGradient id="paint2_linear_1681_62464" x1="212.225" y1="-9.00831" x2="164.66" y2="61.3823" gradientUnits="userSpaceOnUse">
<stop stop-color="white" stop-opacity="0"/>
<stop offset="0.498179" stop-color="white" stop-opacity="0.4"/>
<stop offset="1" stop-color="white" stop-opacity="0.8"/>
</linearGradient>
<linearGradient id="paint3_linear_1681_62464" x1="211.511" y1="127.223" x2="163.945" y2="56.8326" gradientUnits="userSpaceOnUse">
<stop stop-color="white" stop-opacity="0"/>
<stop offset="0.498179" stop-color="white" stop-opacity="0.4"/>
<stop offset="1" stop-color="white" stop-opacity="0.8"/>
</linearGradient>
<linearGradient id="paint4_linear_1681_62464" x1="43.5597" y1="-10.0005" x2="91.125" y2="60.3901" gradientUnits="userSpaceOnUse">
<stop stop-color="white" stop-opacity="0"/>
<stop offset="0.498179" stop-color="white" stop-opacity="0.4"/>
<stop offset="1" stop-color="white" stop-opacity="0.8"/>
</linearGradient>
<linearGradient id="paint5_linear_1681_62464" x1="41.4191" y1="126.231" x2="88.9844" y2="55.8404" gradientUnits="userSpaceOnUse">
<stop stop-color="white" stop-opacity="0"/>
<stop offset="0.498179" stop-color="white" stop-opacity="0.4"/>
<stop offset="1" stop-color="white" stop-opacity="0.8"/>
</linearGradient>
<linearGradient id="paint6_linear_1681_62464" x1="246.658" y1="53.2892" x2="147.438" y2="66.412" gradientUnits="userSpaceOnUse">
<stop stop-color="white" stop-opacity="0"/>
<stop offset="0.498179" stop-color="white" stop-opacity="0.4"/>
<stop offset="1" stop-color="white" stop-opacity="0.8"/>
</linearGradient>
<linearGradient id="paint7_linear_1681_62464" x1="2.39677" y1="53.2892" x2="101.616" y2="66.412" gradientUnits="userSpaceOnUse">
<stop stop-color="white" stop-opacity="0"/>
<stop offset="0.498179" stop-color="white" stop-opacity="0.4"/>
<stop offset="1" stop-color="white" stop-opacity="0.8"/>
</linearGradient>
</defs>
</svg>
