<svg width="33" height="32" viewBox="0 0 33 32" fill="none" xmlns="http://www.w3.org/2000/svg">
<path d="M29.7862 14.3574L24.1612 19.2111L25.8749 26.4699C25.9695 26.8639 25.9451 27.2772 25.805 27.6574C25.6648 28.0376 25.4151 28.3677 25.0873 28.6061C24.7596 28.8444 24.3686 28.9803 23.9637 28.9966C23.5588 29.0128 23.1582 28.9087 22.8124 28.6974L16.4999 24.8124L10.1837 28.6974C9.83796 28.9075 9.4378 29.0106 9.0336 28.9938C8.62939 28.9769 8.23921 28.8409 7.91218 28.6027C7.58515 28.3645 7.33589 28.035 7.1958 27.6554C7.05571 27.2759 7.03105 26.8634 7.12492 26.4699L8.84492 19.2111L3.21992 14.3574C2.91404 14.093 2.69283 13.7444 2.5839 13.3551C2.47497 12.9657 2.48316 12.5529 2.60744 12.1682C2.73172 11.7835 2.96659 11.4439 3.28271 11.1919C3.59883 10.9399 3.98219 10.7866 4.38492 10.7511L11.7599 10.1561L14.6049 3.27114C14.7589 2.89591 15.021 2.57495 15.3579 2.34906C15.6948 2.12317 16.0912 2.00256 16.4968 2.00256C16.9024 2.00256 17.2988 2.12317 17.6357 2.34906C17.9726 2.57495 18.2347 2.89591 18.3887 3.27114L21.2324 10.1561L28.6074 10.7511C29.011 10.7853 29.3954 10.9377 29.7127 11.1894C30.03 11.4411 30.2659 11.7808 30.391 12.166C30.516 12.5511 30.5246 12.9647 30.4157 13.3547C30.3068 13.7447 30.0852 14.094 29.7787 14.3586L29.7862 14.3574Z" fill="#B0B0B0"/>
</svg>
