<svg version="1.1" xmlns="http://www.w3.org/2000/svg" xmlns:xlink="http://www.w3.org/1999/xlink" width="800px" height="800px" viewBox="0,0,256,256"><defs><clipPath id="clip-1"><rect x="7" y="10" width="10" height="2" id="clip0_8_53" fill="none"></rect></clipPath></defs><g fill="none" fill-rule="nonzero" stroke="none" stroke-width="none" stroke-linecap="none" stroke-linejoin="none" stroke-miterlimit="10" stroke-dasharray="" stroke-dashoffset="0" font-family="none" font-weight="none" font-size="none" text-anchor="none" style="mix-blend-mode: normal"><g transform="translate(-0.20816,0.15156) scale(10.66667,10.66667)"><g clip-path="url(#clip-1)" stroke="none" stroke-width="1" stroke-linecap="butt" stroke-linejoin="miter"><path d="M16,12c-0.13,0.0016 -0.2591,-0.0222 -0.38,-0.07c-0.1229,-0.0519 -0.2348,-0.1265 -0.33,-0.2199c-0.0899,-0.0922 -0.1613,-0.2009 -0.21,-0.3201c-0.0504,-0.124 -0.0775,-0.2562 -0.08,-0.39c0.0011,-0.2624 0.1053,-0.5137 0.29,-0.7c0.0925,-0.0967 0.2052,-0.1718 0.33,-0.2199c0.1831,-0.0754 0.3844,-0.09475 0.5784,-0.0556c0.194,0.0392 0.3721,0.1351 0.5116,0.2755c0.1847,0.1863 0.2889,0.4376 0.29,0.7c-0.0025,0.1338 -0.0296,0.266 -0.08,0.39c-0.0487,0.1192 -0.1201,0.2279 -0.21,0.3201c-0.0934,0.0926 -0.2043,0.1659 -0.3261,0.2157c-0.1218,0.0497 -0.2523,0.0749 -0.3839,0.0742z" fill-opacity="0.95294" fill="#7573f3"></path><path d="M12,12c-0.13,0.0016 -0.2591,-0.0222 -0.38,-0.07c-0.1229,-0.0519 -0.2348,-0.1265 -0.33,-0.2199c-0.0899,-0.0922 -0.1613,-0.2009 -0.21,-0.3201c-0.0504,-0.124 -0.0775,-0.2562 -0.08,-0.39c0.0011,-0.2624 0.1053,-0.5137 0.29,-0.7c0.0925,-0.0967 0.2052,-0.1718 0.33,-0.2199c0.1831,-0.0754 0.3844,-0.09475 0.5784,-0.0556c0.194,0.0392 0.3721,0.1351 0.5116,0.2755c0.1847,0.1863 0.2889,0.4376 0.29,0.7c-0.0025,0.1338 -0.0296,0.266 -0.08,0.39c-0.0487,0.1192 -0.1201,0.2279 -0.21,0.3201c-0.0934,0.0926 -0.2043,0.1659 -0.3261,0.2157c-0.1218,0.0497 -0.2523,0.0749 -0.3839,0.0742z" fill-opacity="0.95294" fill="#7573f3"></path><path d="M8,12c-0.13001,0.0016 -0.25909,-0.0222 -0.38,-0.07c-0.12287,-0.0519 -0.23481,-0.1265 -0.32999,-0.2199c-0.08995,-0.0922 -0.16128,-0.2009 -0.21002,-0.3201c-0.05039,-0.124 -0.07749,-0.2562 -0.07999,-0.39c0.0011,-0.2624 0.10526,-0.5137 0.29001,-0.7c0.09249,-0.0967 0.20515,-0.1718 0.32999,-0.2199c0.18305,-0.0754 0.38435,-0.09475 0.57839,-0.0556c0.19405,0.0392 0.37209,0.1351 0.5116,0.2755c0.18475,0.1863 0.28891,0.4376 0.29001,0.7c-0.0025,0.1338 -0.0296,0.266 -0.07999,0.39c-0.04874,0.1192 -0.12007,0.2279 -0.21002,0.3201c-0.09344,0.0926 -0.20424,0.1659 -0.32608,0.2157c-0.12184,0.0497 -0.2523,0.0749 -0.38391,0.0742z" fill-opacity="0.95294" fill="#7573f3"></path></g><path d="M4.99951,16.55v3.35c-0.00029,0.4102 0.11954,0.8114 0.34467,1.1542c0.22513,0.3428 0.54576,0.6123 0.92224,0.775c0.37648,0.1627 0.79233,0.2116 1.19629,0.1406c0.40395,-0.0709 0.77832,-0.2585 1.07684,-0.5397l2.60995,-2.46h0.87c5.52,0 10,-3.8 10,-8.5c0,-4.70001 -4.48,-8.50001 -10,-8.50001c-5.51997,0 -9.99997,3.81 -9.99997,8.50001c0.02247,1.1688 0.30308,2.3181 0.82172,3.3657c0.51864,1.0477 1.26248,1.9677 2.17828,2.6942z" fill="none" stroke-opacity="0.95294" stroke="#7573f3" stroke-width="1.5" stroke-linecap="round" stroke-linejoin="round"></path></g></g></svg>