<svg width="20" height="16" viewBox="0 0 20 16" fill="none" xmlns="http://www.w3.org/2000/svg">
<path d="M19.375 8.00004C19.375 8.29841 19.2565 8.58455 19.0455 8.79553C18.8345 9.00651 18.5484 9.12504 18.25 9.12504H4.46875L9.29875 13.9541C9.5101 14.1654 9.62883 14.4521 9.62883 14.751C9.62883 15.0499 9.5101 15.3365 9.29875 15.5478C9.08741 15.7592 8.80076 15.8779 8.50188 15.8779C8.20299 15.8779 7.91635 15.7592 7.705 15.5478L0.955002 8.79785C0.850122 8.69333 0.766906 8.56914 0.710124 8.4324C0.653343 8.29565 0.624115 8.14904 0.624115 8.00097C0.624115 7.85291 0.653343 7.7063 0.710124 7.56955C0.766906 7.43281 0.850122 7.30862 0.955002 7.2041L7.705 0.4541C7.80965 0.349453 7.93388 0.266442 8.07061 0.209807C8.20734 0.153173 8.35388 0.124023 8.50188 0.124023C8.64987 0.124023 8.79642 0.153173 8.93314 0.209807C9.06987 0.266442 9.1941 0.349453 9.29875 0.4541C9.4034 0.558747 9.48641 0.682981 9.54304 0.819709C9.59968 0.956437 9.62883 1.10298 9.62883 1.25097C9.62883 1.39897 9.59968 1.54551 9.54304 1.68224C9.48641 1.81897 9.4034 1.9432 9.29875 2.04785L4.46875 6.87504H18.25C18.5484 6.87504 18.8345 6.99356 19.0455 7.20454C19.2565 7.41552 19.375 7.70167 19.375 8.00004Z" fill="black"/>
</svg>
