<svg width="22" height="22" viewBox="0 0 22 22" fill="none" xmlns="http://www.w3.org/2000/svg">
<path d="M5.78463 11.6876H18.5625C18.7448 11.6876 18.9197 11.6152 19.0486 11.4862C19.1776 11.3573 19.25 11.1824 19.25 11.0001C19.25 10.8178 19.1776 10.6429 19.0486 10.514C18.9197 10.385 18.7448 10.3126 18.5625 10.3126H5.78463L10.7992 5.29936C10.9283 5.17026 11.0009 4.99518 11.0009 4.81261C11.0009 4.63004 10.9283 4.45495 10.7992 4.32586C10.6702 4.19676 10.4951 4.12424 10.3125 4.12424C10.1299 4.12424 9.95484 4.19676 9.82575 4.32586L3.63825 10.5134C3.57423 10.5772 3.52343 10.6531 3.48877 10.7366C3.45411 10.8201 3.43627 10.9097 3.43627 11.0001C3.43627 11.0905 3.45411 11.1801 3.48877 11.2636C3.52343 11.3471 3.57423 11.423 3.63825 11.4869L9.82575 17.6744C9.95484 17.8035 10.1299 17.876 10.3125 17.876C10.4951 17.876 10.6702 17.8035 10.7992 17.6744C10.9283 17.5453 11.0009 17.3702 11.0009 17.1876C11.0009 17.005 10.9283 16.83 10.7992 16.7009L5.78463 11.6876Z" fill="black"/>
</svg>
