<svg width="26" height="26" viewBox="0 0 26 26" fill="none" xmlns="http://www.w3.org/2000/svg">
<path d="M8.53127 13.8125C8.53121 14.4249 8.33348 15.0208 7.96751 15.5118C7.60153 16.0028 7.08685 16.3625 6.50002 16.5374V21.9375C6.50002 22.153 6.41442 22.3597 6.26204 22.512C6.10967 22.6644 5.90301 22.75 5.68752 22.75C5.47203 22.75 5.26537 22.6644 5.11299 22.512C4.96062 22.3597 4.87502 22.153 4.87502 21.9375V16.5374C4.28837 16.3623 3.7739 16.0025 3.40811 15.5116C3.04231 15.0206 2.84473 14.4247 2.84473 13.8125C2.84473 13.2003 3.04231 12.6044 3.40811 12.1134C3.7739 11.6225 4.28837 11.2627 4.87502 11.0876V4.0625C4.87502 3.84701 4.96062 3.64035 5.11299 3.48798C5.26537 3.3356 5.47203 3.25 5.68752 3.25C5.90301 3.25 6.10967 3.3356 6.26204 3.48798C6.41442 3.64035 6.50002 3.84701 6.50002 4.0625V11.0876C7.08685 11.2625 7.60153 11.6222 7.96751 12.1132C8.33348 12.6042 8.53121 13.2001 8.53127 13.8125ZM13.8125 6.21258V4.0625C13.8125 3.84701 13.7269 3.64035 13.5745 3.48798C13.4222 3.3356 13.2155 3.25 13 3.25C12.7845 3.25 12.5779 3.3356 12.4255 3.48798C12.2731 3.64035 12.1875 3.84701 12.1875 4.0625V6.21258C11.6009 6.38771 11.0864 6.74749 10.7206 7.23844C10.3548 7.72938 10.1572 8.32527 10.1572 8.9375C10.1572 9.54973 10.3548 10.1456 10.7206 10.6366C11.0864 11.1275 11.6009 11.4873 12.1875 11.6624V21.9375C12.1875 22.153 12.2731 22.3597 12.4255 22.512C12.5779 22.6644 12.7845 22.75 13 22.75C13.2155 22.75 13.4222 22.6644 13.5745 22.512C13.7269 22.3597 13.8125 22.153 13.8125 21.9375V11.6624C14.3992 11.4873 14.9136 11.1275 15.2794 10.6366C15.6452 10.1456 15.8428 9.54973 15.8428 8.9375C15.8428 8.32527 15.6452 7.72938 15.2794 7.23844C14.9136 6.74749 14.3992 6.38771 13.8125 6.21258ZM21.125 14.3376V4.0625C21.125 3.84701 21.0394 3.64035 20.887 3.48798C20.7347 3.3356 20.528 3.25 20.3125 3.25C20.097 3.25 19.8904 3.3356 19.738 3.48798C19.5856 3.64035 19.5 3.84701 19.5 4.0625V14.3376C18.9134 14.5127 18.3989 14.8725 18.0331 15.3634C17.6673 15.8544 17.4697 16.4503 17.4697 17.0625C17.4697 17.6747 17.6673 18.2706 18.0331 18.7616C18.3989 19.2525 18.9134 19.6123 19.5 19.7874V21.9375C19.5 22.153 19.5856 22.3597 19.738 22.512C19.8904 22.6644 20.097 22.75 20.3125 22.75C20.528 22.75 20.7347 22.6644 20.887 22.512C21.0394 22.3597 21.125 22.153 21.125 21.9375V19.7874C21.7117 19.6123 22.2261 19.2525 22.5919 18.7616C22.9577 18.2706 23.1553 17.6747 23.1553 17.0625C23.1553 16.4503 22.9577 15.8544 22.5919 15.3634C22.2261 14.8725 21.7117 14.5127 21.125 14.3376Z" fill="#7573F3"/>
</svg>
