<svg width="26" height="26" viewBox="0 0 26 26" fill="none" xmlns="http://www.w3.org/2000/svg">
<path d="M20.3125 4.0625H5.6875C5.25652 4.0625 4.8432 4.2337 4.53845 4.53845C4.2337 4.8432 4.0625 5.25652 4.0625 5.6875V20.3125C4.0625 20.7435 4.2337 21.1568 4.53845 21.4615C4.8432 21.7663 5.25652 21.9375 5.6875 21.9375H20.3125C20.7435 21.9375 21.1568 21.7663 21.4615 21.4615C21.7663 21.1568 21.9375 20.7435 21.9375 20.3125V5.6875C21.9375 5.25652 21.7663 4.8432 21.4615 4.53845C21.1568 4.2337 20.7435 4.0625 20.3125 4.0625ZM20.3125 12.1875H13.8125V5.6875H20.3125V12.1875ZM12.1875 5.6875V12.1875H5.6875V5.6875H12.1875ZM5.6875 13.8125H12.1875V20.3125H5.6875V13.8125ZM20.3125 20.3125H13.8125V13.8125H20.3125V20.3125Z" fill="#7573F3"/>
</svg>
