<svg width="18" height="18" viewBox="0 0 18 18" fill="none" xmlns="http://www.w3.org/2000/svg">
<path d="M12.9719 9.59717L7.34692 15.2222C7.18841 15.3807 6.97343 15.4697 6.74927 15.4697C6.5251 15.4697 6.31012 15.3807 6.15161 15.2222C5.9931 15.0637 5.90405 14.8487 5.90405 14.6245C5.90405 14.4003 5.9931 14.1854 6.15161 14.0269L11.1797 9.00021L6.15302 3.97217C6.07453 3.89368 6.01227 3.80051 5.9698 3.69796C5.92732 3.59541 5.90546 3.48551 5.90546 3.37451C5.90546 3.26352 5.92732 3.15361 5.9698 3.05106C6.01227 2.94852 6.07453 2.85534 6.15302 2.77685C6.2315 2.69837 6.32468 2.63611 6.42722 2.59364C6.52977 2.55116 6.63968 2.5293 6.75067 2.5293C6.86167 2.5293 6.97158 2.55116 7.07412 2.59364C7.17667 2.63611 7.26984 2.69837 7.34833 2.77685L12.9733 8.40185C13.0519 8.48033 13.1142 8.57355 13.1567 8.67616C13.1991 8.77877 13.2209 8.88875 13.2208 8.9998C13.2207 9.11085 13.1986 9.22078 13.1559 9.32329C13.1132 9.4258 13.0507 9.51887 12.9719 9.59717Z" fill="#B0B0B0"/>
</svg>
