<svg width="18" height="18" viewBox="0 0 18 18" fill="none" xmlns="http://www.w3.org/2000/svg">
<path d="M8.82858 12.5491L8.82734 12.5479L3.20234 6.9229C3.15635 6.87692 3.13052 6.81454 3.13052 6.74951C3.13052 6.68448 3.15635 6.62211 3.20234 6.57612C3.24833 6.53013 3.3107 6.5043 3.37573 6.5043C3.44077 6.5043 3.50314 6.53013 3.54913 6.57612L8.57571 11.6041L8.99991 12.0284L9.42424 11.6042L14.4523 6.57758L14.4523 6.57752C14.4751 6.55475 14.5021 6.53669 14.5319 6.52437C14.5616 6.51205 14.5935 6.5057 14.6257 6.5057C14.6579 6.5057 14.6898 6.51205 14.7196 6.52437C14.7493 6.53669 14.7764 6.55475 14.7991 6.57752C14.8219 6.60029 14.84 6.62733 14.8523 6.65708C14.8646 6.68683 14.8709 6.71872 14.8709 6.75092C14.8709 6.78312 14.8646 6.815 14.8523 6.84476C14.84 6.87451 14.8219 6.90154 14.7991 6.92431L9.17413 12.5493L9.17389 12.5495C9.15122 12.5722 9.12429 12.5902 9.09464 12.6025C9.065 12.6148 9.03323 12.6211 9.00115 12.621C8.96907 12.621 8.93731 12.6146 8.90769 12.6023C8.87808 12.59 8.85119 12.5719 8.82858 12.5491Z" fill="black" stroke="#999999" stroke-width="1.2"/>
</svg>
