<svg width="11" height="18" viewBox="0 0 11 18" fill="none" xmlns="http://www.w3.org/2000/svg">
<path d="M0.704102 8.2041L8.2041 0.704103C8.41545 0.49276 8.70209 0.374027 9.00098 0.374027C9.29986 0.374027 9.58651 0.49276 9.79785 0.704103C10.0092 0.915447 10.1279 1.20209 10.1279 1.50098C10.1279 1.79986 10.0092 2.08651 9.79785 2.29785L3.09379 9.00004L9.79598 15.7041C9.90063 15.8088 9.98364 15.933 10.0403 16.0697C10.0969 16.2064 10.1261 16.353 10.1261 16.501C10.1261 16.649 10.0969 16.7955 10.0403 16.9322C9.98364 17.069 9.90063 17.1932 9.79598 17.2979C9.69133 17.4025 9.5671 17.4855 9.43037 17.5421C9.29364 17.5988 9.1471 17.6279 8.9991 17.6279C8.85111 17.6279 8.70457 17.5988 8.56784 17.5421C8.43111 17.4855 8.30687 17.4025 8.20223 17.2979L0.702228 9.79785C0.597471 9.69321 0.5144 9.56892 0.457779 9.43211C0.401159 9.2953 0.372104 9.14865 0.372277 9.00059C0.372452 8.85252 0.401853 8.70595 0.458795 8.56927C0.515737 8.43259 0.599099 8.3085 0.704102 8.2041Z" fill="black"/>
</svg>
