<svg width="26" height="26" viewBox="0 0 26 26" fill="none" xmlns="http://www.w3.org/2000/svg">
<path d="M21.125 5.6875H18.3097L16.9254 3.61156C16.8512 3.5004 16.7508 3.40925 16.633 3.34619C16.5152 3.28312 16.3836 3.25008 16.25 3.25H9.75C9.61637 3.25008 9.48483 3.28312 9.36702 3.34619C9.24921 3.40925 9.14877 3.5004 9.07461 3.61156L7.6893 5.6875H4.875C4.22853 5.6875 3.60855 5.94431 3.15143 6.40143C2.69431 6.85855 2.4375 7.47853 2.4375 8.125V19.5C2.4375 20.1465 2.69431 20.7665 3.15143 21.2236C3.60855 21.6807 4.22853 21.9375 4.875 21.9375H21.125C21.7715 21.9375 22.3915 21.6807 22.8486 21.2236C23.3057 20.7665 23.5625 20.1465 23.5625 19.5V8.125C23.5625 7.47853 23.3057 6.85855 22.8486 6.40143C22.3915 5.94431 21.7715 5.6875 21.125 5.6875ZM21.9375 19.5C21.9375 19.7155 21.8519 19.9222 21.6995 20.0745C21.5472 20.2269 21.3405 20.3125 21.125 20.3125H4.875C4.65951 20.3125 4.45285 20.2269 4.30048 20.0745C4.1481 19.9222 4.0625 19.7155 4.0625 19.5V8.125C4.0625 7.90951 4.1481 7.70285 4.30048 7.55048C4.45285 7.3981 4.65951 7.3125 4.875 7.3125H8.125C8.2588 7.31259 8.39055 7.27963 8.50855 7.21655C8.62655 7.15348 8.72715 7.06224 8.80141 6.95094L10.1847 4.875H15.8143L17.1986 6.95094C17.2729 7.06224 17.3734 7.15348 17.4914 7.21655C17.6094 7.27963 17.7412 7.31259 17.875 7.3125H21.125C21.3405 7.3125 21.5472 7.3981 21.6995 7.55048C21.8519 7.70285 21.9375 7.90951 21.9375 8.125V19.5ZM13 8.9375C12.1162 8.9375 11.2522 9.19959 10.5173 9.69062C9.78241 10.1817 9.20964 10.8796 8.87141 11.6961C8.53318 12.5127 8.44469 13.4112 8.61712 14.2781C8.78954 15.1449 9.21515 15.9412 9.84012 16.5661C10.4651 17.1911 11.2613 17.6167 12.1282 17.7891C12.995 17.9616 13.8936 17.8731 14.7101 17.5348C15.5267 17.1966 16.2246 16.6238 16.7156 15.889C17.2067 15.1541 17.4688 14.2901 17.4688 13.4062C17.4674 12.2215 16.9962 11.0856 16.1584 10.2479C15.3206 9.41009 14.1848 8.93884 13 8.9375ZM13 16.25C12.4376 16.25 11.8877 16.0832 11.4201 15.7707C10.9524 15.4583 10.588 15.0141 10.3727 14.4945C10.1575 13.9749 10.1012 13.4031 10.2109 12.8515C10.3206 12.2998 10.5915 11.7931 10.9892 11.3954C11.3869 10.9977 11.8936 10.7269 12.4452 10.6171C12.9968 10.5074 13.5686 10.5637 14.0883 10.779C14.6079 10.9942 15.052 11.3587 15.3645 11.8263C15.677 12.294 15.8438 12.8438 15.8438 13.4062C15.8438 14.1605 15.5441 14.8838 15.0108 15.4171C14.4775 15.9504 13.7542 16.25 13 16.25Z" fill="white"/>
</svg>
