<svg width="16" height="16" viewBox="0 0 16 16" fill="none" xmlns="http://www.w3.org/2000/svg">
<path d="M15 12.75H14.75V5.5C14.75 5.30109 14.671 5.11032 14.5303 4.96967C14.3897 4.82902 14.1989 4.75 14 4.75H9.5C9.30109 4.75 9.11032 4.82902 8.96967 4.96967C8.82902 5.11032 8.75 5.30109 8.75 5.5V7.75H7.25V2.5C7.25 2.30109 7.17098 2.11032 7.03033 1.96967C6.88968 1.82902 6.69891 1.75 6.5 1.75H2C1.80109 1.75 1.61032 1.82902 1.46967 1.96967C1.32902 2.11032 1.25 2.30109 1.25 2.5V12.75H1C0.801088 12.75 0.610322 12.829 0.46967 12.9697C0.329018 13.1103 0.25 13.3011 0.25 13.5C0.25 13.6989 0.329018 13.8897 0.46967 14.0303C0.610322 14.171 0.801088 14.25 1 14.25H15C15.1989 14.25 15.3897 14.171 15.5303 14.0303C15.671 13.8897 15.75 13.6989 15.75 13.5C15.75 13.3011 15.671 13.1103 15.5303 12.9697C15.3897 12.829 15.1989 12.75 15 12.75ZM10.25 6.25H13.25V12.75H10.25V6.25ZM8.75 9.25V12.75H7.25V9.25H8.75ZM2.75 3.25H5.75V12.75H2.75V3.25ZM5 4.75V5.25C5 5.44891 4.92098 5.63968 4.78033 5.78033C4.63968 5.92098 4.44891 6 4.25 6C4.05109 6 3.86032 5.92098 3.71967 5.78033C3.57902 5.63968 3.5 5.44891 3.5 5.25V4.75C3.5 4.55109 3.57902 4.36032 3.71967 4.21967C3.86032 4.07902 4.05109 4 4.25 4C4.44891 4 4.63968 4.07902 4.78033 4.21967C4.92098 4.36032 5 4.55109 5 4.75ZM5 7.75V8.25C5 8.44891 4.92098 8.63968 4.78033 8.78033C4.63968 8.92098 4.44891 9 4.25 9C4.05109 9 3.86032 8.92098 3.71967 8.78033C3.57902 8.63968 3.5 8.44891 3.5 8.25V7.75C3.5 7.55109 3.57902 7.36032 3.71967 7.21967C3.86032 7.07902 4.05109 7 4.25 7C4.44891 7 4.63968 7.07902 4.78033 7.21967C4.92098 7.36032 5 7.55109 5 7.75ZM5 10.75V11.25C5 11.4489 4.92098 11.6397 4.78033 11.7803C4.63968 11.921 4.44891 12 4.25 12C4.05109 12 3.86032 11.921 3.71967 11.7803C3.57902 11.6397 3.5 11.4489 3.5 11.25V10.75C3.5 10.5511 3.57902 10.3603 3.71967 10.2197C3.86032 10.079 4.05109 10 4.25 10C4.44891 10 4.63968 10.079 4.78033 10.2197C4.92098 10.3603 5 10.5511 5 10.75ZM11 11.25V10.75C11 10.5511 11.079 10.3603 11.2197 10.2197C11.3603 10.079 11.5511 10 11.75 10C11.9489 10 12.1397 10.079 12.2803 10.2197C12.421 10.3603 12.5 10.5511 12.5 10.75V11.25C12.5 11.4489 12.421 11.6397 12.2803 11.7803C12.1397 11.921 11.9489 12 11.75 12C11.5511 12 11.3603 11.921 11.2197 11.7803C11.079 11.6397 11 11.4489 11 11.25ZM11 8.25V7.75C11 7.55109 11.079 7.36032 11.2197 7.21967C11.3603 7.07902 11.5511 7 11.75 7C11.9489 7 12.1397 7.07902 12.2803 7.21967C12.421 7.36032 12.5 7.55109 12.5 7.75V8.25C12.5 8.44891 12.421 8.63968 12.2803 8.78033C12.1397 8.92098 11.9489 9 11.75 9C11.5511 9 11.3603 8.92098 11.2197 8.78033C11.079 8.63968 11 8.44891 11 8.25Z" fill="black"/>
</svg>
