<svg width="25" height="24" viewBox="0 0 25 24" fill="none" xmlns="http://www.w3.org/2000/svg">
<path d="M3.5 6C3.5 5.80109 3.57902 5.61032 3.71967 5.46967C3.86032 5.32902 4.05109 5.25 4.25 5.25H20.75C20.9489 5.25 21.1397 5.32902 21.2803 5.46967C21.421 5.61032 21.5 5.80109 21.5 6C21.5 6.19891 21.421 6.38968 21.2803 6.53033C21.1397 6.67098 20.9489 6.75 20.75 6.75H4.25C4.05109 6.75 3.86032 6.67098 3.71967 6.53033C3.57902 6.38968 3.5 6.19891 3.5 6ZM4.25 12.75H11C11.1989 12.75 11.3897 12.671 11.5303 12.5303C11.671 12.3897 11.75 12.1989 11.75 12C11.75 11.8011 11.671 11.6103 11.5303 11.4697C11.3897 11.329 11.1989 11.25 11 11.25H4.25C4.05109 11.25 3.86032 11.329 3.71967 11.4697C3.57902 11.6103 3.5 11.8011 3.5 12C3.5 12.1989 3.57902 12.3897 3.71967 12.5303C3.86032 12.671 4.05109 12.75 4.25 12.75ZM12.5 17.25H4.25C4.05109 17.25 3.86032 17.329 3.71967 17.4697C3.57902 17.6103 3.5 17.8011 3.5 18C3.5 18.1989 3.57902 18.3897 3.71967 18.5303C3.86032 18.671 4.05109 18.75 4.25 18.75H12.5C12.6989 18.75 12.8897 18.671 13.0303 18.5303C13.171 18.3897 13.25 18.1989 13.25 18C13.25 17.8011 13.171 17.6103 13.0303 17.4697C12.8897 17.329 12.6989 17.25 12.5 17.25ZM22.7806 18.5306C22.711 18.6004 22.6283 18.6557 22.5372 18.6934C22.4462 18.7312 22.3486 18.7506 22.25 18.7506C22.1514 18.7506 22.0538 18.7312 21.9628 18.6934C21.8717 18.6557 21.789 18.6004 21.7194 18.5306L19.8125 16.6275C19.037 17.1391 18.0993 17.3447 17.1809 17.2043C16.2625 17.064 15.4289 16.5877 14.8416 15.8679C14.2544 15.148 13.9552 14.2357 14.0022 13.3079C14.0491 12.38 14.4388 11.5026 15.0957 10.8457C15.7526 10.1888 16.63 9.7991 17.5579 9.75216C18.4857 9.70522 19.398 10.0044 20.1179 10.5916C20.8377 11.1789 21.314 12.0125 21.4543 12.9309C21.5947 13.8493 21.3891 14.787 20.8775 15.5625L22.7806 17.4656C22.8509 17.5353 22.9067 17.6183 22.9448 17.7097C22.9829 17.8011 23.0025 17.8991 23.0025 17.9981C23.0025 18.0971 22.9829 18.1952 22.9448 18.2866C22.9067 18.378 22.8509 18.4609 22.7806 18.5306ZM17.75 15.75C18.195 15.75 18.63 15.618 19 15.3708C19.37 15.1236 19.6584 14.7722 19.8287 14.361C19.999 13.9499 20.0436 13.4975 19.9568 13.061C19.87 12.6246 19.6557 12.2237 19.341 11.909C19.0263 11.5943 18.6254 11.38 18.189 11.2932C17.7525 11.2064 17.3001 11.251 16.889 11.4213C16.4778 11.5916 16.1264 11.88 15.8792 12.25C15.632 12.62 15.5 13.055 15.5 13.5C15.5 14.0967 15.7371 14.669 16.159 15.091C16.581 15.5129 17.1533 15.75 17.75 15.75Z" fill="#B0B0B0"/>
</svg>
