<svg width="18" height="18" viewBox="0 0 18 18" fill="none" xmlns="http://www.w3.org/2000/svg">
<path d="M8.15627 9C8.15627 8.83312 8.20575 8.66999 8.29847 8.53124C8.39118 8.39248 8.52295 8.28434 8.67713 8.22048C8.8313 8.15662 9.00095 8.13991 9.16463 8.17246C9.3283 8.20502 9.47864 8.28538 9.59664 8.40338C9.71464 8.52138 9.795 8.67172 9.82756 8.83539C9.86011 8.99906 9.8434 9.16871 9.77954 9.32289C9.71568 9.47706 9.60753 9.60884 9.46878 9.70155C9.33003 9.79426 9.1669 9.84375 9.00002 9.84375C8.77624 9.84375 8.56163 9.75485 8.4034 9.59662C8.24516 9.43839 8.15627 9.22378 8.15627 9ZM5.90627 9.84375C6.07315 9.84375 6.23628 9.79426 6.37503 9.70155C6.51378 9.60884 6.62193 9.47706 6.68579 9.32289C6.74965 9.16871 6.76636 8.99906 6.73381 8.83539C6.70125 8.67172 6.62089 8.52138 6.50289 8.40338C6.38489 8.28538 6.23455 8.20502 6.07088 8.17246C5.90721 8.13991 5.73756 8.15662 5.58338 8.22048C5.4292 8.28434 5.29743 8.39248 5.20472 8.53124C5.112 8.66999 5.06252 8.83312 5.06252 9C5.06252 9.22378 5.15141 9.43839 5.30965 9.59662C5.46788 9.75485 5.68249 9.84375 5.90627 9.84375ZM12.0938 9.84375C12.2606 9.84375 12.4238 9.79426 12.5625 9.70155C12.7013 9.60884 12.8094 9.47706 12.8733 9.32289C12.9372 9.16871 12.9539 8.99906 12.9213 8.83539C12.8888 8.67172 12.8084 8.52138 12.6904 8.40338C12.5724 8.28538 12.422 8.20502 12.2584 8.17246C12.0947 8.13991 11.9251 8.15662 11.7709 8.22048C11.6167 8.28434 11.4849 8.39248 11.3922 8.53124C11.2995 8.66999 11.25 8.83312 11.25 9C11.25 9.22378 11.3389 9.43839 11.4971 9.59662C11.6554 9.75485 11.87 9.84375 12.0938 9.84375ZM16.3125 4.5V13.5C16.3125 13.7984 16.194 14.0845 15.983 14.2955C15.772 14.5065 15.4859 14.625 15.1875 14.625H5.83596L3.54377 16.605L3.53744 16.6099C3.33496 16.7816 3.07798 16.8756 2.81252 16.875C2.64726 16.8746 2.48408 16.8382 2.33439 16.7681C2.14024 16.6784 1.97601 16.5347 1.8613 16.3541C1.7466 16.1736 1.68627 15.9639 1.68752 15.75V4.5C1.68752 4.20163 1.80605 3.91548 2.01702 3.7045C2.228 3.49353 2.51415 3.375 2.81252 3.375H15.1875C15.4859 3.375 15.772 3.49353 15.983 3.7045C16.194 3.91548 16.3125 4.20163 16.3125 4.5ZM15.1875 4.5H2.81252V15.75L5.25728 13.6406C5.35892 13.551 5.4895 13.501 5.62502 13.5H15.1875V4.5Z" fill="#C1C0C0"/>
</svg>
