<svg width="18" height="18" viewBox="0 0 18 18" fill="none" xmlns="http://www.w3.org/2000/svg">
<path d="M16.8623 11.0391L16.0186 4.28906C15.9672 3.88117 15.7687 3.50606 15.4603 3.23418C15.1519 2.96231 14.7549 2.81236 14.3438 2.8125H2.25C1.95163 2.8125 1.66548 2.93103 1.4545 3.142C1.24353 3.35298 1.125 3.63913 1.125 3.9375V10.125C1.125 10.4234 1.24353 10.7095 1.4545 10.9205C1.66548 11.1315 1.95163 11.25 2.25 11.25H5.27766L7.93406 16.5642C7.98083 16.6577 8.0527 16.7363 8.14162 16.7911C8.23054 16.846 8.333 16.8751 8.4375 16.875C9.18342 16.875 9.89879 16.5787 10.4262 16.0512C10.9537 15.5238 11.25 14.8084 11.25 14.0625V12.9375H15.1875C15.427 12.9376 15.6637 12.8867 15.882 12.7882C16.1003 12.6898 16.2951 12.546 16.4535 12.3664C16.6119 12.1868 16.7303 11.9756 16.8008 11.7467C16.8713 11.5179 16.8923 11.2766 16.8623 11.0391ZM5.0625 10.125H2.25V3.9375H5.0625V10.125ZM15.6094 11.622C15.557 11.6823 15.4921 11.7305 15.4193 11.7634C15.3465 11.7963 15.2674 11.813 15.1875 11.8125H10.6875C10.5383 11.8125 10.3952 11.8718 10.2898 11.9773C10.1843 12.0827 10.125 12.2258 10.125 12.375V14.0625C10.1251 14.4527 9.99003 14.8308 9.74274 15.1326C9.49545 15.4343 9.15124 15.6411 8.76867 15.7177L6.1875 10.5546V3.9375H14.3438C14.4808 3.93745 14.6131 3.98744 14.7159 4.07806C14.8187 4.16869 14.8849 4.29372 14.902 4.42969L15.7458 11.1797C15.7563 11.2589 15.7496 11.3394 15.726 11.4158C15.7025 11.4921 15.6627 11.5625 15.6094 11.622Z" fill="#7573F3"/>
</svg>
