<svg width="16" height="16" viewBox="0 0 16 16" fill="none" xmlns="http://www.w3.org/2000/svg">
<path d="M12.7956 3.24062C11.8528 2.29179 10.6495 1.64425 9.33826 1.38009C8.02701 1.11594 6.66685 1.24706 5.4302 1.75683C4.19355 2.26661 3.13611 3.13208 2.39191 4.24354C1.64772 5.355 1.25029 6.6624 1.25 7.99999V11.5C1.25 11.9641 1.43437 12.4092 1.76256 12.7374C2.09075 13.0656 2.53587 13.25 3 13.25H4C4.46413 13.25 4.90925 13.0656 5.23744 12.7374C5.56563 12.4092 5.75 11.9641 5.75 11.5V8.99999C5.75 8.53586 5.56563 8.09074 5.23744 7.76256C4.90925 7.43437 4.46413 7.24999 4 7.24999H2.8025C2.9835 6.00054 3.60843 4.85806 4.56289 4.03169C5.51735 3.20531 6.7375 2.75032 8 2.74999H8.04C9.29687 2.75537 10.5098 3.2131 11.4569 4.03943C12.4039 4.86576 13.0218 6.00545 13.1975 7.24999H12C11.5359 7.24999 11.0908 7.43437 10.7626 7.76256C10.4344 8.09074 10.25 8.53586 10.25 8.99999V11.5C10.25 11.9641 10.4344 12.4092 10.7626 12.7374C11.0908 13.0656 11.5359 13.25 12 13.25H13.225C13.1674 13.5323 13.014 13.7861 12.7907 13.9683C12.5675 14.1505 12.2882 14.2501 12 14.25H8.5C8.30109 14.25 8.11032 14.329 7.96967 14.4697C7.82902 14.6103 7.75 14.8011 7.75 15C7.75 15.1989 7.82902 15.3897 7.96967 15.5303C8.11032 15.671 8.30109 15.75 8.5 15.75H12C12.7291 15.7492 13.4281 15.4592 13.9436 14.9436C14.4592 14.4281 14.7492 13.7291 14.75 13V7.99999C14.7534 7.11711 14.5826 6.24222 14.2472 5.42551C13.9118 4.60879 13.4185 3.8663 12.7956 3.24062ZM4 8.74999C4.0663 8.74999 4.12989 8.77633 4.17678 8.82322C4.22366 8.8701 4.25 8.93369 4.25 8.99999V11.5C4.25 11.5663 4.22366 11.6299 4.17678 11.6768C4.12989 11.7237 4.0663 11.75 4 11.75H3C2.9337 11.75 2.87011 11.7237 2.82322 11.6768C2.77634 11.6299 2.75 11.5663 2.75 11.5V8.74999H4ZM11.75 11.5V8.99999C11.75 8.93369 11.7763 8.8701 11.8232 8.82322C11.8701 8.77633 11.9337 8.74999 12 8.74999H13.25V11.75H12C11.9337 11.75 11.8701 11.7237 11.8232 11.6768C11.7763 11.6299 11.75 11.5663 11.75 11.5Z" fill="black"/>
</svg>
