<svg width="24" height="18" viewBox="0 0 24 18" fill="none" xmlns="http://www.w3.org/2000/svg">
<path d="M24 15.0002C24 15.7074 23.719 16.3857 23.219 16.8858C22.7189 17.3859 22.0406 17.6668 21.3333 17.6668H2.66667C1.95942 17.6668 1.28115 17.3859 0.781049 16.8858C0.280952 16.3857 0 15.7074 0 15.0002V3.00016C0 2.29292 0.280952 1.61464 0.781049 1.11454C1.28115 0.614448 1.95942 0.333496 2.66667 0.333496H21.3333C22.0406 0.333496 22.7189 0.614448 23.219 1.11454C23.719 1.61464 24 2.29292 24 3.00016V15.0002Z" fill="#00AFCA"/>
<path d="M12.69 9.91863C13.7449 9.91863 14.6 9.0635 14.6 8.00863C14.6 6.95377 13.7449 6.09863 12.69 6.09863C11.6352 6.09863 10.78 6.95377 10.78 8.00863C10.78 9.0635 11.6352 9.91863 12.69 9.91863Z" fill="#FFCC4D"/>
<path d="M12.6914 5.95447C12.8047 5.95314 12.8461 5.8818 12.8461 5.79714C12.8461 5.6838 12.6914 4.7998 12.6914 4.7998C12.6914 4.7998 12.5341 5.6838 12.5341 5.79714C12.5341 5.8818 12.5767 5.95447 12.6914 5.95447ZM12.6914 10.0731C12.5767 10.0738 12.5341 10.1451 12.5341 10.2298C12.5341 10.3438 12.6914 11.2158 12.6914 11.2158C12.6914 11.2158 12.8461 10.3431 12.8461 10.2298C12.8467 10.1458 12.8047 10.0731 12.6914 10.0731ZM12.1574 9.99247C12.0474 9.96447 11.9894 10.0225 11.9674 10.1045C11.9381 10.2138 11.8587 11.1085 11.8587 11.1085C11.8587 11.1085 12.2394 10.2945 12.2687 10.1851C12.2914 10.1031 12.2681 10.0218 12.1574 9.99247ZM13.2241 6.0138C13.3347 6.04314 13.3947 5.98447 13.4167 5.90314C13.4461 5.79314 13.5194 4.9098 13.5194 4.9098C13.5194 4.9098 13.1447 5.7118 13.1147 5.82247C13.0927 5.90381 13.1141 5.98447 13.2241 6.0138ZM11.6621 9.78581C11.5627 9.73047 11.4914 9.77114 11.4494 9.84514C11.3927 9.94314 11.0847 10.7865 11.0847 10.7865C11.0847 10.7865 11.6627 10.0991 11.7194 10.0011C11.7621 9.92714 11.7614 9.84314 11.6621 9.78581ZM13.7214 6.21847C13.8207 6.2758 13.8941 6.23447 13.9361 6.16114C13.9934 6.06247 14.2927 5.22914 14.2927 5.22914C14.2927 5.22914 13.7221 5.90714 13.6647 6.00514C13.6234 6.07847 13.6234 6.1618 13.7214 6.21847ZM11.2367 9.45981C11.1554 9.38047 11.0761 9.40114 11.0161 9.46114C10.9361 9.5418 10.4201 10.2765 10.4201 10.2765C10.4201 10.2765 11.1567 9.76181 11.2367 9.68247C11.2967 9.62247 11.3181 9.53981 11.2367 9.45981ZM14.1494 6.54647C14.2307 6.62714 14.3114 6.60647 14.3714 6.54647C14.4521 6.46647 14.9574 5.73781 14.9574 5.73781C14.9574 5.73781 14.2314 6.2458 14.1514 6.32647C14.0914 6.38647 14.0694 6.46647 14.1494 6.54647ZM10.9114 9.03381C10.8534 8.93647 10.7714 8.93647 10.6974 8.97847C10.5987 9.03514 9.91072 9.61114 9.91072 9.61114C9.91072 9.61114 10.7554 9.30581 10.8534 9.24914C10.9274 9.20647 10.9687 9.13314 10.9114 9.03381ZM14.4781 6.97447C14.5361 7.0738 14.6201 7.07447 14.6927 7.03247C14.7914 6.97514 15.4681 6.40314 15.4681 6.40314C15.4681 6.40314 14.6354 6.70514 14.5367 6.7618C14.4634 6.80447 14.4221 6.8758 14.4781 6.97447ZM10.7067 8.53847C10.6761 8.42914 10.5961 8.4078 10.5141 8.42914C10.4047 8.45847 9.59072 8.83714 9.59072 8.83714C9.59072 8.83714 10.4854 8.76047 10.5947 8.73114C10.6767 8.70847 10.7361 8.64914 10.7067 8.53847ZM14.6841 7.47181C14.7147 7.58247 14.7947 7.60514 14.8767 7.58314C14.9867 7.5538 15.7887 7.17647 15.7887 7.17647C15.7887 7.17647 14.9061 7.25247 14.7954 7.28181C14.7141 7.30314 14.6547 7.36247 14.6841 7.47181ZM10.6367 8.00714C10.6354 7.8938 10.5641 7.85247 10.4794 7.85247C10.3661 7.85247 9.48206 8.00714 9.48206 8.00714C9.48206 8.00714 10.3661 8.16447 10.4794 8.16447C10.5641 8.16447 10.6367 8.1218 10.6367 8.00714ZM14.7554 8.00714C14.7561 8.1218 14.8274 8.16447 14.9121 8.16447C15.0261 8.16447 15.8981 8.00714 15.8981 8.00714C15.8981 8.00714 15.0254 7.85247 14.9121 7.85247C14.8274 7.8518 14.7554 7.8938 14.7554 8.00714ZM10.7067 7.4758C10.7347 7.3658 10.6767 7.3078 10.5947 7.2858C10.4854 7.25647 9.59072 7.17714 9.59072 7.17714C9.59072 7.17714 10.4047 7.5578 10.5141 7.58714C10.5961 7.60914 10.6774 7.58647 10.7067 7.4758ZM14.6847 8.5418C14.6554 8.65247 14.7141 8.71247 14.7954 8.73447C14.9054 8.7638 15.7887 8.83714 15.7887 8.83714C15.7887 8.83714 14.9867 8.46181 14.8761 8.43247C14.7947 8.41114 14.7141 8.4318 14.6847 8.5418ZM10.9121 6.98047C10.9674 6.8818 10.9267 6.80981 10.8527 6.76781C10.7547 6.71114 9.91139 6.40314 9.91139 6.40314C9.91139 6.40314 10.5987 6.98114 10.6967 7.03781C10.7707 7.08047 10.8547 7.07914 10.9121 6.98047ZM14.4794 9.0398C14.4221 9.13914 14.4634 9.21247 14.5367 9.25447C14.6347 9.3118 15.4687 9.61114 15.4687 9.61114C15.4687 9.61114 14.7907 9.04114 14.6927 8.9838C14.6194 8.9418 14.5361 8.9418 14.4794 9.0398ZM11.2381 6.55514C11.3174 6.4738 11.2967 6.39447 11.2367 6.33447C11.1561 6.25447 10.4214 5.73847 10.4214 5.73847C10.4214 5.73847 10.9361 6.47514 11.0154 6.55514C11.0754 6.61514 11.1574 6.63647 11.2381 6.55514ZM14.1514 9.4678C14.0707 9.54914 14.0914 9.63047 14.1514 9.68981C14.2314 9.77047 14.9601 10.2758 14.9601 10.2758C14.9601 10.2758 14.4521 9.54981 14.3714 9.46914C14.3114 9.40914 14.2314 9.38714 14.1514 9.4678ZM11.6647 6.22914C11.7614 6.17114 11.7621 6.08914 11.7201 6.01514C11.6634 5.91714 11.0874 5.22847 11.0874 5.22847C11.0874 5.22847 11.3927 6.07314 11.4494 6.17114C11.4914 6.24514 11.5654 6.28647 11.6647 6.22914ZM13.7241 9.79647C13.6254 9.8538 13.6241 9.93714 13.6661 10.0105C13.7234 10.1091 14.2954 10.7858 14.2954 10.7858C14.2954 10.7858 13.9934 9.95247 13.9367 9.85381C13.8941 9.78114 13.8221 9.73914 13.7241 9.79647ZM12.1594 6.02447C12.2687 5.9938 12.2901 5.9138 12.2687 5.8318C12.2394 5.72247 11.8607 4.90847 11.8607 4.90847C11.8607 4.90847 11.9374 5.80314 11.9667 5.91247C11.9887 5.99447 12.0487 6.0538 12.1594 6.02447ZM13.2261 10.0025C13.1154 10.0331 13.0927 10.1131 13.1147 10.1951C13.1441 10.3051 13.5214 11.1071 13.5214 11.1071C13.5214 11.1071 13.4454 10.2238 13.4161 10.1145C13.3947 10.0325 13.3354 9.97314 13.2261 10.0025Z" fill="#FFCC4D"/>
<path d="M14.564 12.7633L14.5393 12.774L14.512 12.778L14.4913 12.782L14.4533 12.774L14.4366 12.7673L14.4213 12.76L14.4033 12.7487L14.3733 12.7273L14.346 12.7053L14.3306 12.6947L14.3113 12.6867L14.298 12.6833H14.2786L14.2033 12.84L14.188 12.862L14.1733 12.88L14.158 12.8913L14.1446 12.9027L14.1253 12.91H14.1073L14.0906 12.9027L14.0673 12.8913L14.0606 12.88L14.0526 12.8687L14.0446 12.854L14.0366 12.8367L14.026 12.7813L14.004 12.7993L13.9833 12.8253L13.942 12.888L13.9173 12.9207L13.8913 12.946L13.8773 12.9613L13.8593 12.9727L13.8413 12.9807L13.8193 12.9873H13.8086L13.7893 12.9913L13.7713 12.9873L13.7573 12.9807L13.7146 12.9293L13.6666 12.878L13.634 12.9293L13.596 12.9727L13.578 12.9907L13.5613 13.0087L13.5433 13.0233L13.5093 13.042L13.4913 13.046H13.4733L13.458 13.042L13.4433 13.034L13.4326 13.0227L13.4186 13.0053L13.3886 12.9247L13.3846 12.906L13.378 12.892L13.37 12.8847H13.362L13.2633 13.046L13.2493 13.06L13.2233 13.0713L13.166 13.0853H13.132L13.106 13.078L13.098 13.074L13.0873 13.0627L13.0846 13.056V13.0413L13.098 12.88L13.0873 12.884L13.0586 12.898C13.0323 12.9253 13.0067 12.9533 12.982 12.982L12.9493 13.0227L12.9086 13.0567L12.8706 13.0853L12.8493 13.0973L12.8053 13.104L12.7873 13.1L12.7793 13.0973L12.772 13.0893L12.768 13.078V13.0667L12.772 13.02L12.7833 12.946L12.776 12.9027L12.7606 12.8773L12.7386 12.91L12.7026 12.9573L12.6106 13.0533L12.5593 13.09L12.5193 13.104L12.5113 13.1H12.5L12.492 13.0933L12.4893 13.0893L12.4813 13.078L12.4786 13.0667V13.0527L12.4746 13.034L12.4786 12.8953C12.412 12.9407 12.3446 12.9845 12.2766 13.0267L12.2513 13.038L12.2226 13.0527C12.1955 13.0593 12.1686 13.0665 12.142 13.074H12.1153L12.0906 13.0707L12.068 13.0627L12.0793 13.0333L12.1013 12.982L12.1153 12.9607L12.1313 12.9387L12.1453 12.9167L12.1826 12.88L12.2233 12.8513L12.27 12.8213L12.318 12.7993L12.3733 12.7813L12.428 12.7673L12.5526 12.7453L12.6146 12.7373C12.7986 12.7267 12.9833 12.7253 13.1673 12.7267L13.3693 12.7153L13.432 12.708L13.548 12.686L13.604 12.6707L13.656 12.6493L13.704 12.6273C13.7293 12.6073 13.7553 12.5878 13.782 12.5687L13.8173 12.5273L13.7793 12.4547L13.8093 12.4507L13.838 12.444L13.868 12.4293L13.8926 12.4107L13.9033 12.404L13.9153 12.3927L13.9233 12.378L13.9313 12.3673L13.934 12.3527V12.3273L13.926 12.3127L13.9886 12.3013L14.0553 12.294L14.1253 12.29H14.198C14.3002 12.294 14.4017 12.3 14.5026 12.308C14.656 12.3258 14.8097 12.3418 14.964 12.356L15.102 12.3633V12.414L15.0993 12.4367L15.0913 12.458L15.0846 12.48L15.0766 12.498L15.066 12.5127C15.0531 12.5273 15.0395 12.5418 15.0253 12.556L14.9926 12.5773L14.9573 12.592L14.922 12.6L14.8813 12.6073L14.8033 12.6L14.7626 12.5887L14.7273 12.57L14.6893 12.552L14.6606 12.526L14.632 12.4973V12.56L14.614 12.6813L14.6 12.7193L14.592 12.7347L14.5813 12.7453L14.5733 12.7567L14.564 12.7633ZM11.6186 12.4187L11.702 12.4553L11.7533 12.4153L11.786 12.398L11.8153 12.3793L11.9253 12.3353L12.02 12.2913L12.068 12.2733L12.1493 12.23L12.182 12.2073C12.2646 12.1531 12.3477 12.0998 12.4313 12.0473L12.504 11.996L12.5593 11.952C12.6135 11.9027 12.6673 11.8527 12.7206 11.802L12.7426 11.7873L12.768 11.7727L12.86 11.7287L12.922 11.7073C13.0464 11.6736 13.172 11.6467 13.2986 11.6267L13.6866 11.5793L13.8586 11.55C13.9013 11.538 13.9442 11.5271 13.9873 11.5173L14.0313 11.462L14.102 11.3853L14.15 11.338L14.2033 11.2933L14.266 11.246L14.3386 11.198L14.4493 11.1327C14.5284 11.0927 14.6073 11.0522 14.686 11.0113C14.8255 10.9456 14.964 10.8771 15.1013 10.806L15.1666 10.762L15.1846 10.7067L15.2106 10.6527L15.2433 10.5973L15.328 10.484C15.3666 10.4431 15.4044 10.4013 15.4413 10.3587C15.4866 10.3147 15.5331 10.272 15.5806 10.2307L15.6513 10.1727L15.6866 10.1467L15.7246 10.1213C15.7513 10.1058 15.7782 10.0911 15.8053 10.0773L15.846 10.0587L15.8853 10.0447L15.9713 10.022L16.014 10.0193L16.0546 10.0153L16.0973 10.0193L16.138 10.026L16.1353 10.07L16.1246 10.1133L16.092 10.2053L16.0646 10.2527L16.032 10.3007L15.992 10.3513L15.944 10.4027L15.982 10.3987L16.0146 10.3913L16.0406 10.3833L16.0653 10.3727L16.1133 10.358L16.182 10.3507L16.186 10.3767V10.402L16.182 10.4273L16.1753 10.4493L16.1646 10.4713L16.1493 10.4933L16.1353 10.5107L16.1173 10.5293C16.0669 10.5779 16.0156 10.6255 15.9633 10.672L16.0066 10.676C16.0386 10.6862 16.0709 10.6958 16.1033 10.7047L16.1386 10.7127L16.096 10.746L15.9933 10.812L15.876 10.878L15.8173 10.9147L15.7586 10.9553L15.704 10.9993L15.7286 11.0027L15.7626 11.0173L15.7773 11.0213L15.7913 11.0287L15.8033 11.032L15.814 11.0287L15.7413 11.0693L15.606 11.1353L15.55 11.1687L15.5393 11.18L15.5326 11.1913L15.5246 11.202L15.5273 11.2167L15.5353 11.228L15.5493 11.2387L15.5626 11.2507L15.5573 11.2647L15.5493 11.2767L15.5353 11.2873L15.522 11.2987L15.4866 11.316L15.444 11.3347L15.3606 11.364L15.3086 11.39L15.3813 11.4627L15.3553 11.488L15.3306 11.5067L15.3086 11.518L15.2826 11.5287L15.232 11.536H15.16L15.168 11.5693L15.1786 11.602L15.194 11.676C15.1484 11.7112 15.102 11.7452 15.0546 11.778L14.97 11.8327L14.876 11.8873L14.82 11.9133L14.7653 11.9387C14.7035 11.9625 14.6411 11.9845 14.578 12.0047L14.436 12.0347L14.358 12.046C14.4424 12.0487 14.5271 12.0498 14.612 12.0493L14.82 12.0273L14.9113 12.0093L14.992 11.9873C15.0453 11.9691 15.0977 11.9496 15.1493 11.9287L15.2506 11.882L15.3506 11.8267L15.4446 11.7673L15.5446 11.7093L15.4846 11.68L15.4273 11.662L15.4 11.6493C15.3795 11.6391 15.3586 11.6296 15.3373 11.6207L15.3033 11.602L15.332 11.5807L15.3673 11.566L15.4053 11.552C15.4497 11.5413 15.494 11.5313 15.538 11.522C15.5953 11.5158 15.6526 11.5087 15.71 11.5007L15.7826 11.4933L15.8386 11.4793L15.8533 11.4713L15.864 11.46L15.8613 11.456L15.8533 11.4487L15.8426 11.4447L15.8286 11.438L15.788 11.43L15.736 11.4227L15.6853 11.4187L15.6346 11.4113L15.5893 11.4L15.562 11.3887L15.92 11.3087L15.9826 11.29C16.0097 11.2798 16.0366 11.2689 16.0633 11.2573L16.0986 11.2347L16.114 11.2207L16.11 11.2173L16.1033 11.2093L16.0693 11.202L16.0226 11.198H15.9666L15.8533 11.1913L15.8066 11.1833L15.7766 11.176L15.8286 11.1547C15.9064 11.1307 15.9846 11.1085 16.0633 11.088C16.1077 11.0725 16.1529 11.0578 16.1986 11.044L16.268 11.0147L16.3006 10.9967L16.3306 10.9787L16.3413 10.9673L16.3526 10.9527L16.3633 10.942L16.3673 10.9307L16.3633 10.9193L16.3526 10.9113L16.3413 10.9087H16.24L16.192 10.9113H16.1266L16.1073 10.9087L16.0946 10.9007L16.0786 10.8933C16.212 10.8049 16.3464 10.718 16.482 10.6327L16.5873 10.5593C16.6157 10.5359 16.6435 10.5117 16.6706 10.4867L16.7033 10.45L16.7333 10.4133L16.7553 10.3733L16.7733 10.3333L16.784 10.2887V10.2413H16.7593L16.7333 10.2453L16.676 10.2667C16.6251 10.2985 16.5735 10.3292 16.5213 10.3587L16.4926 10.3773L16.4586 10.3913L16.426 10.4027L16.396 10.41L16.3673 10.414H16.3333L16.3046 10.4027L16.3933 10.3367C16.4644 10.2758 16.5351 10.2147 16.6053 10.1533C16.6827 10.0794 16.7582 10.0036 16.832 9.92602L16.9373 9.80868C16.9684 9.76735 17.0004 9.7269 17.0333 9.68735C17.0595 9.65002 17.0851 9.61224 17.11 9.57402L17.118 9.56002L17.1206 9.54868L17.118 9.53335L17.114 9.52268L17.11 9.51068L17.0993 9.50335L17.088 9.49202L17.0773 9.48802L17.0633 9.48135L17.0473 9.47735H17.0186L17.0046 9.48135L16.9853 9.48402L16.9746 9.49601L16.9593 9.50735C16.8846 9.58202 16.8109 9.65779 16.738 9.73468L16.6493 9.81868L16.4733 9.96935L16.3886 10.024L16.308 10.0647L16.3326 10.0427C16.3593 10.0173 16.3853 9.99179 16.4106 9.96601C16.5044 9.85757 16.5946 9.74646 16.6813 9.63268L16.8506 9.39468L16.896 9.31468L16.9413 9.24135L16.978 9.17468L17.0066 9.11201L17.0246 9.06135L17.0286 9.04335V9.01402L17.0246 9.00268L17.0113 8.98068L17.0033 8.97335L16.9913 8.97002L16.9706 8.95802L16.9433 8.95068H16.8933L16.8793 8.95468L16.8686 8.95802L16.8533 8.96601L16.8426 8.97668L16.8126 9.00268C16.7797 9.0422 16.7479 9.08266 16.7173 9.12402C16.644 9.23868 16.5671 9.3509 16.4866 9.46068L16.394 9.57068L16.3473 9.61868L16.2966 9.66268L16.362 9.54068L16.4646 9.32535L16.5313 9.16802L16.56 9.08735L16.6106 8.92201C16.6235 8.86868 16.6349 8.81513 16.6446 8.76135C16.6491 8.71157 16.6531 8.66135 16.6566 8.61068L16.6513 8.57402L16.6486 8.54135L16.6446 8.50735L16.634 8.46468L16.626 8.45268L16.608 8.43468L16.5833 8.42402L16.556 8.41602H16.5313L16.508 8.42001L16.5013 8.42402L16.4906 8.42668L16.4866 8.43468C16.4206 8.64268 16.3706 8.85468 16.3133 9.06468L16.248 9.24068L16.1933 9.34668L16.1593 9.39402L16.1813 9.28868C16.192 9.22779 16.2015 9.16668 16.21 9.10535L16.2253 8.95468L16.2293 8.89201L16.2213 8.79668L16.2146 8.76001L16.204 8.73068L16.1886 8.70868L16.1806 8.70135L16.1586 8.69402L16.148 8.69002H16.136L16.1253 8.69402L16.0953 8.70135L16.0666 8.71601C16.044 8.82935 16.0171 8.94179 15.986 9.05335C15.9425 9.19384 15.8913 9.33183 15.8326 9.46668C15.793 9.54953 15.7512 9.63133 15.7073 9.71202L15.6266 9.85135L15.5393 9.98268C15.4807 10.0646 15.42 10.1451 15.3573 10.224C15.296 10.2929 15.2335 10.3613 15.17 10.4293C15.1042 10.4942 15.0369 10.558 14.968 10.6207C14.8973 10.6789 14.8257 10.736 14.7533 10.792C14.6645 10.8559 14.5738 10.917 14.4813 10.9753L14.32 11.07L14.0633 11.188L13.7993 11.2827L13.5806 11.3493L13.354 11.4L13.2406 11.4187L13.0086 11.448L12.8913 11.4553L12.88 11.4593L12.8686 11.4627L12.8466 11.4747L12.822 11.492L12.7373 11.5687L12.6786 11.628L12.466 11.8653L12.3853 11.946L12.2906 12.0187L12.2533 12.044L12.2166 12.0667L12.1366 12.1033C12.0126 12.154 11.8866 12.2 11.762 12.25L11.7293 12.268L11.7 12.2833L11.6786 12.2973L11.638 12.338L11.6266 12.356L11.6186 12.374L11.616 12.4V12.4187" fill="#FFCC4D"/>
<path d="M12.9607 12.5834L13.022 12.5914L13.052 12.6027L13.0587 12.6061V12.6101H13.052L13.044 12.6134L12.9853 12.6247H12.9387L12.7853 12.6134L12.3967 12.6061C12.294 12.6074 12.1913 12.6098 12.0887 12.6134C11.9984 12.6201 11.908 12.6274 11.8173 12.6354L11.7473 12.6467L11.6853 12.6607C11.6711 12.6661 11.6567 12.6709 11.642 12.6754L11.6233 12.6834L11.6087 12.6947L11.6153 12.6574L11.6313 12.6201L11.58 12.6347L11.536 12.6567L11.5187 12.6681L11.5033 12.6827L11.492 12.7001L11.4893 12.7187L11.4787 12.6934L11.4707 12.6707L11.4627 12.6234C11.4671 12.6043 11.4707 12.5849 11.4733 12.5654L11.4853 12.5467L11.492 12.5321L11.5073 12.5147L11.5367 12.4854L11.5767 12.4594L11.622 12.4341C11.6459 12.4481 11.6714 12.459 11.698 12.4667C11.7242 12.4694 11.7507 12.4669 11.776 12.4594C11.8167 12.4954 11.922 12.4881 11.9367 12.4227C11.9423 12.3986 11.9423 12.3735 11.9367 12.3494L11.9807 12.3461L12.032 12.3381L12.1453 12.3087L12.2047 12.2974L12.2593 12.2834L12.3107 12.2761L12.354 12.2721L12.336 12.2874L12.2407 12.3601L12.2047 12.3854L12.2513 12.3974L12.292 12.4047L12.2053 12.5034L12.1827 12.5327L12.2113 12.5441L12.2407 12.5521L12.274 12.5594H12.34L12.4053 12.5447L12.4313 12.5294L12.4613 12.5447L12.4907 12.5561C12.5093 12.5614 12.5284 12.5663 12.548 12.5707L12.6847 12.5847H12.9607M12.6267 11.4701L12.594 11.5361L12.5567 11.6207C12.5376 11.6553 12.5196 11.6904 12.5027 11.7261L12.484 11.7447L12.4407 11.7081L12.3927 11.6747L12.3413 11.6487L12.2873 11.6274L12.1693 11.5974L12.1113 11.5867C12.0479 11.5794 11.9843 11.5734 11.9207 11.5687C11.8363 11.5674 11.7521 11.5634 11.668 11.5567L11.5507 11.5427L11.4847 11.5314L11.4227 11.5174L11.3573 11.4947L11.302 11.4661L11.2613 11.4394L11.1773 11.3774C11.0547 11.2621 10.9333 11.1454 10.8073 11.0327L10.7347 10.9821L10.7013 10.9674L10.6667 10.9567L10.6047 10.9427L10.4953 10.9061L10.392 10.8587C10.3314 10.8214 10.2729 10.7809 10.2167 10.7374L10.18 10.7034L10.1073 10.6307L10.0373 10.5541C9.922 10.4134 9.81333 10.2681 9.70067 10.1254C9.64678 10.0682 9.59188 10.012 9.536 9.95672L9.48867 9.91339L9.44067 9.87339L9.33533 9.79672L9.32467 9.80005L9.31267 9.81139L9.30133 9.82605C9.29467 9.84294 9.28889 9.86005 9.284 9.87739L9.28 9.89205L9.25333 9.88005L9.23133 9.86872L9.20467 9.85739L9.18267 9.85005H9.13533L9.10933 9.85739L9.084 9.86872C9.104 9.89405 9.12333 9.91961 9.142 9.94539L9.17467 9.99672L9.234 10.1101L9.25533 10.1654L9.26333 10.1947L9.27133 10.2167L9.27467 10.2421V10.2634H9.07733L9.106 10.3074C9.12822 10.3372 9.15111 10.3665 9.17467 10.3954L9.296 10.5167L9.33667 10.5494L9.374 10.5754L9.27867 10.5834L9.18267 10.5941L9.21533 10.6241C9.24378 10.6441 9.272 10.6647 9.3 10.6861L9.34733 10.7187L9.39533 10.7481L9.44267 10.7741L9.48667 10.7887L9.52733 10.7994L9.56 10.8067L9.57067 10.8107L9.57867 10.8187L9.58133 10.8221V10.8361L9.57067 10.8661L9.568 10.8874L9.56333 10.9021V10.9127L9.568 10.9314L9.57067 10.9461L9.57867 10.9527L9.58933 10.9607L9.60333 10.9681L9.622 10.9721L9.65933 10.9867L9.67733 10.9934L9.692 11.0047L9.69533 11.0087V11.0161L9.692 11.0201L9.66267 11.0414L9.648 11.0561L9.63333 11.0741V11.0894L9.63 11.1041L9.63733 11.1434L9.76533 11.1874L9.79467 11.1941L9.824 11.2061L9.846 11.2174L9.86467 11.2287L9.74333 11.3241L9.776 11.3534L9.81667 11.3754L9.868 11.4007C9.90445 11.4141 9.94133 11.4265 9.97867 11.4381L10.0333 11.4487L10.0813 11.4601H10.1247L10.084 11.4894L10.0327 11.5221L9.978 11.5521L9.93733 11.5814L9.974 11.6067C10.0851 11.6645 10.1989 11.7172 10.3153 11.7647C10.5184 11.8469 10.7247 11.9201 10.934 11.9841C10.9807 11.9952 11.0269 12.0074 11.0727 12.0207L11.1313 12.0321L11.0133 12.0207C10.94 12.0111 10.8669 12 10.794 11.9874L10.6913 11.9654L10.4893 11.9074L10.3947 11.8741C10.1413 11.7754 9.894 11.6621 9.64 11.5661L9.65867 11.5554L9.71 11.5367L9.74267 11.5294C9.78711 11.5161 9.83111 11.5014 9.87467 11.4854C9.78735 11.4723 9.70043 11.4567 9.614 11.4387C9.56918 11.4242 9.52406 11.4107 9.47867 11.3981L9.45267 11.3867L9.43067 11.3754L9.41267 11.3634L9.40067 11.3527V11.3494L9.40467 11.3454L9.416 11.3414L9.42667 11.3341L9.456 11.3227L9.584 11.2854L9.658 11.2601C9.55178 11.2401 9.44533 11.2218 9.33867 11.2054L9.28733 11.1934L9.24667 11.1794L9.232 11.1714L9.218 11.1601L9.206 11.1534L9.19867 11.1414L9.21 11.1341L9.24267 11.1267C9.27689 11.1214 9.31111 11.1154 9.34533 11.1087L9.404 11.1014C9.43733 11.0921 9.47022 11.0821 9.50267 11.0714L9.518 11.0607L9.53267 11.0487L9.47467 11.0267L9.43733 11.0201L9.40067 11.0121L9.23267 10.9901L9.18867 10.9794L9.148 10.9714L9.06733 10.9427L9.03 10.9241L9 10.9027L8.97067 10.8767L8.94867 10.8441L8.95667 10.8401L8.97067 10.8361H8.98933L9.01867 10.8401L9.158 10.8474L9.23933 10.8554H9.34133L9.37 10.8514L9.39267 10.8441L9.40733 10.8361C9.33835 10.808 9.26989 10.7787 9.202 10.7481C9.15709 10.7252 9.11175 10.7032 9.066 10.6821L8.92733 10.6094L8.86133 10.5687L8.74067 10.4807L8.68933 10.4367L8.66667 10.4114L8.644 10.3894L8.63 10.3674L8.61467 10.3414L8.6 10.3201L8.592 10.2947L8.586 10.2474H8.61067L8.64 10.2507L8.66933 10.2627L8.69867 10.2734L8.75667 10.3101L8.82267 10.3467L8.852 10.3654L8.88467 10.3827L8.91733 10.3974L8.94667 10.4087L8.97933 10.4167L9.00867 10.4201H9.042L9.07067 10.4087L8.984 10.3421C8.91221 10.2825 8.84131 10.2218 8.77133 10.1601C8.65543 10.0494 8.54401 9.93424 8.43733 9.81472L8.39067 9.75272L8.34267 9.69405L8.26533 9.58005L8.25867 9.56539V9.54005L8.262 9.52872L8.26533 9.51805L8.27667 9.51072L8.28733 9.49939L8.29933 9.49139L8.31333 9.48739L8.328 9.48472H8.35733L8.37533 9.48739L8.39133 9.49139L8.40533 9.50272C8.48444 9.58139 8.56244 9.66094 8.63933 9.74139C8.72378 9.82272 8.81178 9.90094 8.90333 9.97605L8.98733 10.0301L9.03067 10.0527L9.07133 10.0667L9.04267 10.0487L8.966 9.97205C8.87267 9.86361 8.78222 9.7525 8.69467 9.63872L8.58067 9.47739C8.5475 9.42426 8.51328 9.3718 8.478 9.32005C8.44999 9.27426 8.4231 9.22781 8.39733 9.18072L8.35067 9.06739L8.346 9.04939V9.01939L8.35067 9.00872L8.36467 8.98672L8.37267 8.97872L8.384 8.97205L8.43133 8.95672H8.48267L8.49733 8.96005L8.508 8.96405L8.52267 8.97205L8.56333 9.00872L8.65867 9.13005C8.73333 9.24472 8.81156 9.35694 8.89333 9.46672L8.98 9.57672L9.028 9.62405L9.07933 9.66805C9.02091 9.55728 8.9649 9.44525 8.91133 9.33205L8.84533 9.17472L8.816 9.09405C8.80068 9.0384 8.78356 8.98326 8.76467 8.92872L8.74667 8.84805L8.73333 8.76605L8.72533 8.68939L8.722 8.61672L8.72533 8.58005L8.73 8.54672L8.73333 8.51339L8.74067 8.48072L8.748 8.46872L8.752 8.45805L8.76267 8.44605L8.77 8.43939L8.79533 8.42805L8.82133 8.42139H8.84667L8.86867 8.42539L8.87933 8.42805L8.88733 8.43205L8.89133 8.44005L8.89533 8.45072C8.958 8.65539 9.00933 8.86339 9.06333 9.07072C9.08467 9.1285 9.10689 9.18583 9.13 9.24272L9.15533 9.29739L9.18467 9.34872L9.21733 9.40005L9.196 9.29339C9.18762 9.2325 9.17784 9.17182 9.16667 9.11139C9.15941 9.04061 9.15341 8.96971 9.14867 8.89872L9.156 8.80339L9.16333 8.76605L9.17467 8.73739L9.18933 8.71539L9.19667 8.70739L9.20733 8.70005L9.218 8.69672H9.25133L9.28133 8.70739L9.31 8.72205L9.36133 8.95272C9.38 9.02294 9.40067 9.0925 9.42333 9.16139C9.46067 9.26628 9.50111 9.37005 9.54467 9.47272L9.596 9.57872L9.66933 9.71872L9.74933 9.85739L9.838 9.98939L9.93267 10.1207L10.0213 10.2307C10.0827 10.3001 10.1449 10.3685 10.208 10.4361C10.2742 10.5009 10.3416 10.5643 10.41 10.6261L10.516 10.7147C10.6133 10.7907 10.7136 10.8627 10.8167 10.9307C10.8976 10.9787 10.9793 11.0252 11.062 11.0701L11.314 11.1914C11.442 11.2421 11.5713 11.2883 11.702 11.3301C11.83 11.3643 11.9596 11.3936 12.0907 11.4181C12.2667 11.4456 12.4453 11.4629 12.6267 11.4701Z" fill="#FFCC4D"/>
<path d="M2.30458 16.0148C2.30458 16.0148 2.14658 16.1462 2.09325 16.0802C2.00725 15.9735 2.35791 15.4408 2.35791 15.2528C2.35791 14.9455 2.15191 14.8602 1.89858 14.8168C1.72791 14.7875 1.45125 14.8295 1.45125 14.8295C1.50325 14.8995 1.53725 14.9215 1.62525 14.9255C1.56441 14.9571 1.51367 15.0052 1.47879 15.0643C1.44391 15.1233 1.42628 15.1909 1.42791 15.2595C1.42791 15.5235 1.53725 15.6328 1.53725 15.9322C1.53725 16.0982 1.40125 16.3088 1.40125 16.3088C1.64125 16.2848 1.76125 16.0628 1.69325 15.8842C1.71161 15.8805 1.73061 15.8814 1.74852 15.8869C1.76644 15.8924 1.78272 15.9022 1.79591 15.9155C1.81325 15.8668 1.78591 15.8088 1.74858 15.7602C1.77858 15.7448 1.80058 15.7542 1.84791 15.7635C1.84325 15.7128 1.81258 15.6595 1.73858 15.6088C1.95458 15.6642 2.08725 15.5142 2.08725 15.3568C2.08725 15.2368 2.00391 15.1515 1.92191 15.1515C1.89088 15.1526 1.86072 15.1621 1.83458 15.1788C1.81925 15.1468 1.82725 15.1028 1.84258 15.0702C1.78325 15.0855 1.74525 15.1208 1.77258 15.1955C1.75225 15.1958 1.7322 15.2004 1.71373 15.2089C1.69525 15.2174 1.67874 15.2296 1.66525 15.2448C1.67828 15.2605 1.69473 15.273 1.71334 15.2813C1.73194 15.2896 1.75221 15.2936 1.77258 15.2928C1.73925 15.3622 1.77658 15.4015 1.83058 15.4322C1.83058 15.4322 1.79591 15.2928 1.88458 15.2928C1.92458 15.2928 1.96058 15.3068 1.96058 15.3648C1.96058 15.4148 1.91591 15.4855 1.81325 15.4815C1.70991 15.4768 1.62658 15.4102 1.62658 15.2468C1.62658 15.0942 1.74858 15.0188 1.90925 15.0142C2.05458 15.0095 2.16391 15.0882 2.16391 15.2382C2.16391 15.4368 1.87591 15.8915 1.87591 16.0688C1.87591 16.2022 1.99525 16.2762 2.11258 16.2762C2.26458 16.2762 2.39258 16.1255 2.39258 16.1255L2.30458 16.0148ZM2.27125 12.4135C2.27125 12.0815 2.56991 11.9102 2.80458 11.9102C3.12058 11.9102 3.28925 12.0995 3.28925 12.3462C3.28925 12.4875 3.26325 12.5755 3.19858 12.7095L2.47391 14.2142C2.44805 14.2775 2.43644 14.3458 2.43991 14.4142C2.43991 14.5488 2.57125 14.6595 2.70858 14.6628C2.83325 14.6662 2.96991 14.5462 2.96991 14.4095C2.96991 14.2435 2.88458 14.1702 2.79591 14.1702C2.68725 14.1702 2.64391 14.2142 2.64391 14.2908C2.64391 14.3448 2.66991 14.3675 2.70658 14.3675C2.79991 14.3675 2.77391 14.2422 2.77391 14.2422C2.78633 14.2447 2.79803 14.25 2.80819 14.2576C2.81834 14.2652 2.8267 14.275 2.83268 14.2862C2.83866 14.2974 2.8421 14.3097 2.84278 14.3224C2.84345 14.3351 2.84133 14.3477 2.83658 14.3595C2.87144 14.367 2.90298 14.3854 2.92658 14.4122C2.90251 14.4377 2.87102 14.4549 2.83658 14.4615C2.85858 14.5335 2.82925 14.5688 2.76658 14.5842C2.77709 14.5598 2.78011 14.5329 2.77525 14.5068C2.67591 14.5348 2.52391 14.4908 2.52391 14.3188C2.52391 14.1482 2.64191 14.0048 2.86391 14.0402C2.81058 14.0162 2.78458 13.9648 2.77925 13.9062C2.81925 13.9228 2.86391 13.9248 2.86391 13.9248C2.83791 13.8795 2.80191 13.8402 2.80325 13.7495C2.84458 13.7688 2.88258 13.8028 2.93525 13.7808C2.85258 13.6188 2.95391 13.3962 3.21258 13.3422C3.12477 13.4376 3.07476 13.5618 3.07191 13.6915C3.07191 14.0782 3.17991 14.1422 3.17991 14.4102C3.17791 14.4726 3.16131 14.5337 3.13144 14.5886C3.10158 14.6435 3.05927 14.6906 3.00791 14.7262V14.7215C3.08258 14.7415 3.13125 14.7795 3.15925 14.8295C2.98658 14.8782 2.73525 14.8775 2.60125 14.8248C2.5405 14.816 2.48249 14.7938 2.4314 14.7598C2.38032 14.7258 2.33745 14.6808 2.30591 14.6282C2.27344 14.553 2.25669 14.472 2.25669 14.3902C2.25669 14.3083 2.27344 14.2273 2.30591 14.1522C2.40858 13.9382 2.89258 12.9122 3.04325 12.5888C3.07587 12.52 3.09337 12.445 3.09458 12.3688C3.09458 12.1722 2.91391 12.1028 2.81125 12.1028C2.68791 12.1028 2.56258 12.1975 2.56258 12.3135C2.56258 12.3882 2.60325 12.4322 2.66058 12.4322C2.79991 12.4322 2.79125 12.3142 2.76325 12.2395C2.84925 12.2795 2.89991 12.3475 2.88591 12.4208C2.93525 12.4275 2.98191 12.4508 3.02458 12.4988C2.99058 12.5428 2.94925 12.5748 2.88591 12.5755C2.91391 12.6888 2.83791 12.7368 2.76325 12.7628C2.78658 12.6802 2.80191 12.5835 2.66058 12.5835C2.55725 12.5835 2.47591 12.5655 2.42858 12.4982C2.42525 12.5882 2.41658 12.9415 2.41658 12.9415C2.41125 13.0748 2.59458 13.0708 2.71125 13.0315C2.66658 13.1848 2.57658 13.2682 2.36658 13.2468C2.39857 13.2595 2.42587 13.2817 2.44472 13.3105C2.46358 13.3392 2.47308 13.3731 2.47191 13.4075C2.47191 13.5328 2.37058 13.6708 2.30458 13.7122L2.27125 12.4135Z" fill="#FFCC4D"/>
<path d="M2.33721 12.4132C2.33721 12.0812 2.03855 11.9099 1.80388 11.9099C1.48788 11.9099 1.31921 12.0992 1.31921 12.3459C1.31921 12.4872 1.34521 12.5752 1.40988 12.7092L2.13455 14.2139C2.16018 14.2773 2.17156 14.3456 2.16788 14.4139C2.16788 14.5486 2.03655 14.6592 1.89988 14.6626C1.77455 14.6659 1.63855 14.5459 1.63855 14.4092C1.63855 14.2432 1.72388 14.1699 1.81255 14.1699C1.92121 14.1699 1.96455 14.2139 1.96455 14.2906C1.96455 14.3446 1.93855 14.3672 1.90188 14.3672C1.80855 14.3672 1.83455 14.2419 1.83455 14.2419C1.82213 14.2445 1.81043 14.2498 1.80027 14.2574C1.79012 14.265 1.78176 14.2747 1.77578 14.2859C1.7698 14.2971 1.76636 14.3095 1.76568 14.3221C1.76501 14.3348 1.76712 14.3475 1.77188 14.3592C1.73702 14.3667 1.70548 14.3852 1.68188 14.4119C1.70594 14.4374 1.73744 14.4547 1.77188 14.4612C1.75055 14.5332 1.77988 14.5686 1.84255 14.5832C1.83203 14.5589 1.82902 14.532 1.83388 14.5059C1.93321 14.5339 2.08521 14.4899 2.08521 14.3179C2.08521 14.1472 1.96721 14.0039 1.74588 14.0392C1.79855 14.0152 1.82521 13.9639 1.82988 13.9052C1.80308 13.916 1.77471 13.9223 1.74588 13.9239C1.77121 13.8786 1.80721 13.8392 1.80588 13.7486C1.76455 13.7679 1.72721 13.8019 1.67388 13.7799C1.75655 13.6179 1.65521 13.3952 1.39655 13.3412C1.48436 13.4367 1.53436 13.5609 1.53721 13.6906C1.53721 14.0772 1.42988 14.1412 1.42988 14.4092C1.42988 14.5212 1.48788 14.6432 1.60188 14.7252V14.7206C1.57045 14.7268 1.54072 14.7397 1.51463 14.7583C1.48855 14.777 1.4667 14.8009 1.45055 14.8286C1.62321 14.8772 1.87388 14.8766 2.00855 14.8239C2.06929 14.8151 2.12731 14.7929 2.17839 14.7589C2.22947 14.7249 2.27234 14.6799 2.30388 14.6272C2.33635 14.5521 2.3531 14.4711 2.3531 14.3892C2.3531 14.3074 2.33635 14.2264 2.30388 14.1512C2.20121 13.9372 1.71721 12.9112 1.56655 12.5879C1.53392 12.5191 1.51642 12.4441 1.51521 12.3679C1.51521 12.1712 1.69588 12.1019 1.79855 12.1019C1.92188 12.1019 2.04721 12.1966 2.04721 12.3126C2.04721 12.3872 2.00655 12.4312 1.94921 12.4312C1.80988 12.4312 1.81855 12.3132 1.84588 12.2386C1.75988 12.2786 1.70921 12.3466 1.72321 12.4199C1.66909 12.4283 1.61983 12.456 1.58455 12.4979C1.61855 12.5419 1.65988 12.5739 1.72321 12.5746C1.69521 12.6879 1.77121 12.7359 1.84588 12.7619C1.82255 12.6792 1.80721 12.5826 1.94921 12.5826C2.05255 12.5826 2.13388 12.5646 2.18121 12.4972L2.19321 12.9406C2.19855 13.0739 2.01455 13.0699 1.89788 13.0306C1.94188 13.1832 2.03255 13.2666 2.24188 13.2452C2.20989 13.2579 2.18259 13.2801 2.16374 13.3089C2.14488 13.3376 2.13538 13.3715 2.13655 13.4059C2.13655 13.5312 2.23721 13.6692 2.30388 13.7106L2.33721 12.4132ZM2.30455 16.0146C2.30455 16.0146 2.46255 16.1459 2.51588 16.0799C2.60188 15.9732 2.25121 15.4406 2.25121 15.2526C2.25121 14.9452 2.45721 14.8599 2.71055 14.8166C2.88121 14.7872 3.15855 14.8292 3.15855 14.8292C3.10588 14.8992 3.07255 14.9212 2.98455 14.9252C3.04489 14.9575 3.0952 15.0057 3.13 15.0646C3.1648 15.1235 3.18275 15.1908 3.18188 15.2592C3.18188 15.5232 3.07255 15.6326 3.07255 15.9319C3.07255 16.0979 3.20855 16.3086 3.20855 16.3086C2.96855 16.2846 2.84855 16.0626 2.91655 15.8839C2.89818 15.8808 2.87934 15.882 2.86152 15.8874C2.8437 15.8929 2.82739 15.9024 2.81388 15.9152C2.79655 15.8666 2.82455 15.8086 2.86121 15.7599C2.83121 15.7446 2.80921 15.7539 2.76188 15.7632C2.76655 15.7126 2.79655 15.6592 2.87121 15.6086C2.65521 15.6639 2.52255 15.5139 2.52255 15.3566C2.52255 15.2366 2.60588 15.1512 2.68788 15.1512C2.71455 15.1512 2.75321 15.1626 2.77521 15.1786C2.79055 15.1466 2.78255 15.1026 2.76655 15.0699C2.82655 15.0852 2.86388 15.1206 2.83721 15.1952C2.85755 15.1956 2.87759 15.2001 2.89607 15.2086C2.91454 15.2171 2.93105 15.2294 2.94455 15.2446C2.93152 15.2602 2.91506 15.2727 2.89646 15.281C2.87785 15.2894 2.85758 15.2933 2.83721 15.2926C2.87055 15.3619 2.83321 15.4012 2.77921 15.4319C2.77921 15.4319 2.81388 15.2926 2.72521 15.2926C2.68521 15.2926 2.64921 15.3066 2.64921 15.3646C2.64921 15.4146 2.69388 15.4852 2.79655 15.4812C2.89921 15.4772 2.98255 15.4099 2.98255 15.2466C2.98255 15.0939 2.86055 15.0186 2.69988 15.0139C2.55455 15.0092 2.44521 15.0879 2.44521 15.2379C2.44521 15.4366 2.73321 15.8912 2.73321 16.0686C2.73321 16.2019 2.61388 16.2759 2.49655 16.2759C2.34455 16.2759 2.21655 16.1252 2.21655 16.1252L2.30455 16.0146ZM2.27121 6.58457C2.27121 6.25123 2.56988 6.08057 2.80455 6.08057C3.12055 6.08057 3.28921 6.2699 3.28921 6.51723C3.28921 6.6579 3.26321 6.7459 3.19855 6.8799L2.47388 8.38523C2.44811 8.44839 2.43651 8.51644 2.43988 8.58457C2.43988 8.7199 2.57121 8.8299 2.70855 8.8339C2.83321 8.83657 2.96988 8.71657 2.96988 8.58057C2.96988 8.41523 2.88455 8.34123 2.79588 8.34123C2.68721 8.34123 2.64388 8.3859 2.64388 8.46257C2.64388 8.51523 2.66988 8.53857 2.70655 8.53857C2.79988 8.53857 2.77388 8.41323 2.77388 8.41323C2.78614 8.41586 2.79767 8.42111 2.8077 8.42863C2.81773 8.43615 2.82601 8.44575 2.83197 8.45678C2.83792 8.46781 2.84142 8.48 2.84221 8.4925C2.843 8.50501 2.84107 8.51754 2.83655 8.52923C2.87149 8.53689 2.90305 8.55559 2.92655 8.58257C2.9023 8.60796 2.87092 8.6254 2.83655 8.63257C2.85855 8.70457 2.82921 8.73923 2.76655 8.75457C2.77706 8.73022 2.78008 8.7033 2.77521 8.67723C2.67588 8.70523 2.52388 8.66123 2.52388 8.48923C2.52388 8.31923 2.64188 8.1759 2.86388 8.21123C2.81055 8.1859 2.78455 8.13457 2.77921 8.07723C2.81921 8.09323 2.86388 8.09457 2.86388 8.09457C2.83788 8.04923 2.80188 8.0099 2.80321 7.9199C2.84455 7.93857 2.88255 7.97323 2.93521 7.95123C2.85255 7.78857 2.95388 7.56523 3.21255 7.51257C3.12474 7.60803 3.07473 7.73222 3.07188 7.8619C3.07188 8.2479 3.17988 8.31257 3.17988 8.58123C3.17988 8.69323 3.12188 8.81457 3.00788 8.89723V8.89257C3.08121 8.91257 3.12921 8.94923 3.15788 8.9999C2.98521 9.04923 2.73388 9.0479 2.59988 8.99523C2.53914 8.98643 2.48112 8.96422 2.43004 8.9302C2.37895 8.89618 2.33609 8.85122 2.30455 8.79857C2.27226 8.72361 2.25561 8.64285 2.25561 8.56123C2.25561 8.47962 2.27226 8.39886 2.30455 8.3239C2.40721 8.10923 2.89121 7.08323 3.04188 6.7599C3.0745 6.69107 3.09201 6.61606 3.09321 6.5399C3.09321 6.34257 2.91255 6.27323 2.80988 6.27323C2.68655 6.27323 2.56121 6.36723 2.56121 6.48323C2.56121 6.5579 2.60188 6.60257 2.65921 6.60257C2.79855 6.60257 2.78988 6.4839 2.76188 6.4099C2.84788 6.44857 2.89855 6.5179 2.88455 6.59123C2.93388 6.5979 2.98055 6.62057 3.02321 6.6699C2.98921 6.71257 2.94788 6.74457 2.88455 6.7459C2.91255 6.8599 2.83655 6.9079 2.76188 6.9339C2.78521 6.85123 2.80055 6.75523 2.65921 6.75523C2.55588 6.75523 2.47455 6.73723 2.42721 6.67057C2.42388 6.7599 2.41521 7.1139 2.41521 7.1139C2.40988 7.24657 2.59321 7.24323 2.70988 7.20323C2.66655 7.35657 2.57655 7.43923 2.36655 7.4179C2.39865 7.43058 2.42602 7.4529 2.44489 7.4818C2.46376 7.5107 2.47319 7.54475 2.47188 7.57923C2.47188 7.7039 2.37055 7.84257 2.30455 7.88323L2.27121 6.58457Z" fill="#FFCC4D"/>
<path d="M2.33721 6.58457C2.33721 6.25123 2.03855 6.08057 1.80388 6.08057C1.48788 6.08057 1.31921 6.2699 1.31921 6.51723C1.31921 6.6579 1.34521 6.7459 1.40988 6.8799L2.13455 8.38523C2.15988 8.4379 2.16788 8.49723 2.16788 8.58457C2.16788 8.7199 2.03655 8.8299 1.89988 8.8339C1.77455 8.83657 1.63855 8.71657 1.63855 8.58057C1.63855 8.41523 1.72388 8.34123 1.81255 8.34123C1.92121 8.34123 1.96455 8.3859 1.96455 8.46257C1.96455 8.51523 1.93855 8.53857 1.90188 8.53857C1.80855 8.53857 1.83455 8.41323 1.83455 8.41323C1.82217 8.41565 1.81049 8.42077 1.80033 8.42824C1.79018 8.43571 1.7818 8.44534 1.77581 8.45643C1.76982 8.46752 1.76636 8.4798 1.76568 8.49239C1.765 8.50498 1.76712 8.51756 1.77188 8.52923C1.73693 8.53689 1.70538 8.55559 1.68188 8.58257C1.70612 8.60796 1.73751 8.6254 1.77188 8.63257C1.75055 8.70457 1.77921 8.73923 1.84188 8.75457C1.83137 8.73022 1.82835 8.7033 1.83321 8.67723C1.93255 8.70523 2.08455 8.66123 2.08455 8.48923C2.08455 8.31923 1.96655 8.1759 1.74521 8.21123C1.79788 8.1859 1.82455 8.13457 1.82921 8.07723C1.78921 8.09323 1.74521 8.09457 1.74521 8.09457C1.77055 8.04923 1.80655 8.0099 1.80521 7.9199C1.76388 7.93857 1.72655 7.97323 1.67321 7.95123C1.75588 7.78857 1.65455 7.56523 1.39588 7.51257C1.48369 7.60803 1.5337 7.73222 1.53655 7.8619C1.53655 8.2479 1.42921 8.31257 1.42921 8.58123C1.42921 8.69323 1.48721 8.81457 1.60121 8.89723V8.89257C1.52788 8.91301 1.47788 8.94879 1.45121 8.9999C1.62388 9.04923 1.87455 9.0479 2.00921 8.99523C2.06995 8.98643 2.12797 8.96422 2.17906 8.9302C2.23014 8.89619 2.27301 8.85122 2.30455 8.79857C2.33683 8.72361 2.35348 8.64285 2.35348 8.56123C2.35348 8.47962 2.33683 8.39886 2.30455 8.3239C2.20188 8.10923 1.71788 7.08323 1.56721 6.7599C1.53468 6.69128 1.51718 6.6165 1.51588 6.54057C1.51588 6.34323 1.69655 6.2739 1.79921 6.2739C1.92255 6.2739 2.04788 6.3679 2.04788 6.4839C2.04788 6.55857 2.00721 6.60323 1.94988 6.60323C1.81055 6.60323 1.81921 6.48457 1.84655 6.41057C1.76055 6.44923 1.70988 6.51857 1.72388 6.5919C1.66945 6.59986 1.61998 6.62793 1.58521 6.67057C1.61921 6.71323 1.66055 6.74523 1.72388 6.74657C1.69588 6.86057 1.77188 6.90857 1.84655 6.93457C1.82321 6.8519 1.80788 6.7559 1.94988 6.7559C2.05321 6.7559 2.13455 6.7379 2.18188 6.67123L2.19321 7.11323C2.19855 7.2459 2.01455 7.24257 1.89788 7.20257C1.94188 7.3559 2.03255 7.43857 2.24188 7.4179C2.20978 7.43058 2.18241 7.4529 2.16354 7.4818C2.14467 7.5107 2.13524 7.54475 2.13655 7.57923C2.13655 7.7039 2.23721 7.84257 2.30388 7.88323L2.33721 6.58457Z" fill="#FFCC4D"/>
<path d="M2.33727 5.5862C2.33727 5.91887 2.03861 6.0902 1.80394 6.0902C1.48794 6.0902 1.31927 5.90087 1.31927 5.65287C1.31927 5.51287 1.34527 5.42487 1.40994 5.2902L2.13461 3.78487C2.16014 3.72166 2.17152 3.65362 2.16794 3.58554C2.16794 3.45087 2.03661 3.3402 1.89994 3.33687C1.77461 3.3342 1.63861 3.45354 1.63861 3.5902C1.63861 3.7562 1.72394 3.82954 1.81261 3.82954C1.92127 3.82954 1.96461 3.78487 1.96461 3.7082C1.96461 3.65487 1.93861 3.6322 1.90194 3.6322C1.80861 3.6322 1.83461 3.75754 1.83461 3.75754C1.82227 3.75493 1.81065 3.74966 1.80056 3.7421C1.79047 3.73454 1.78215 3.72486 1.77618 3.71376C1.77022 3.70265 1.76675 3.69037 1.76601 3.67778C1.76528 3.66519 1.7673 3.6526 1.77194 3.64087C1.7369 3.63386 1.70522 3.61532 1.68194 3.5882C1.70627 3.56305 1.73765 3.54585 1.77194 3.53887C1.75061 3.46687 1.77994 3.4322 1.84261 3.41687C1.83209 3.44121 1.82908 3.46814 1.83394 3.4942C1.93327 3.4662 2.08527 3.51154 2.08527 3.6822C2.08527 3.85287 1.96727 3.99554 1.74594 3.9602C1.79861 3.98554 1.82527 4.03687 1.82994 4.0942C1.8028 4.08483 1.77457 4.07901 1.74594 4.07687C1.77127 4.1222 1.80727 4.16154 1.80594 4.25154C1.76461 4.23287 1.72727 4.1982 1.67394 4.2202C1.75661 4.38287 1.65527 4.6062 1.39661 4.65954C1.48457 4.5639 1.53458 4.43944 1.53727 4.30954C1.53727 3.9242 1.42994 3.85887 1.42994 3.59087C1.42994 3.47887 1.48794 3.35754 1.60194 3.27487V3.27954C1.57058 3.27309 1.54093 3.26008 1.51496 3.24135C1.48899 3.22262 1.46729 3.1986 1.45127 3.17087C1.62394 3.1222 1.87461 3.12287 2.00927 3.1762C2.07007 3.18508 2.12813 3.20739 2.17922 3.24153C2.23031 3.27567 2.27314 3.32076 2.30461 3.37354C2.33689 3.4485 2.35354 3.52925 2.35354 3.61087C2.35354 3.69249 2.33689 3.77324 2.30461 3.8482C2.20194 4.06287 1.71794 5.08887 1.56727 5.41154C1.53474 5.48016 1.51724 5.55494 1.51594 5.63087C1.51594 5.82887 1.69661 5.89754 1.79927 5.89754C1.92261 5.89754 2.04794 5.80354 2.04794 5.68687C2.04794 5.61287 2.00727 5.56754 1.94994 5.56754C1.81061 5.56754 1.81927 5.68554 1.84661 5.7602C1.76061 5.72154 1.70994 5.6522 1.72394 5.57887C1.66951 5.57091 1.62003 5.54284 1.58527 5.5002C1.61927 5.45754 1.66061 5.42487 1.72394 5.4242C1.69594 5.31087 1.77194 5.2622 1.84661 5.23554C1.82327 5.31887 1.80794 5.41554 1.94994 5.41554C2.05327 5.41554 2.13461 5.43287 2.18194 5.5002L2.19394 5.0562C2.19927 4.92354 2.01527 4.92754 1.89861 4.96687C1.94261 4.81354 2.03327 4.73087 2.24261 4.75154C2.21051 4.73886 2.18313 4.71653 2.16426 4.68763C2.1454 4.65874 2.13597 4.62469 2.13727 4.5902C2.13727 4.46554 2.23794 4.32687 2.30461 4.2862L2.33727 5.5862ZM2.33727 11.4155C2.33727 11.7482 2.03861 11.9189 1.80394 11.9189C1.48794 11.9189 1.31927 11.7302 1.31927 11.4829C1.31766 11.3562 1.3489 11.2312 1.40994 11.1202L2.13461 9.61487C2.16014 9.55166 2.17152 9.48362 2.16794 9.41554C2.16794 9.2802 2.03661 9.1702 1.89994 9.16687C1.77461 9.16354 1.63861 9.28354 1.63861 9.41954C1.63861 9.58487 1.72394 9.65887 1.81261 9.65887C1.92127 9.65887 1.96461 9.6142 1.96461 9.53754C1.96461 9.48487 1.93861 9.4622 1.90194 9.4622C1.80861 9.4622 1.83461 9.58754 1.83461 9.58754C1.82227 9.58493 1.81065 9.57966 1.80056 9.5721C1.79047 9.56454 1.78215 9.55486 1.77618 9.54376C1.77022 9.53265 1.76675 9.52037 1.76601 9.50778C1.76528 9.49519 1.7673 9.4826 1.77194 9.47087C1.73681 9.46368 1.70512 9.4449 1.68194 9.41754C1.706 9.39204 1.7375 9.37477 1.77194 9.3682C1.75061 9.29554 1.77927 9.26087 1.84194 9.24554C1.83143 9.26988 1.82841 9.2968 1.83327 9.32287C1.93261 9.29487 2.08461 9.33954 2.08461 9.51087C2.08461 9.68087 1.96661 9.82354 1.74527 9.78887C1.79794 9.81487 1.82461 9.86554 1.82927 9.92354C1.78927 9.9082 1.74527 9.90554 1.74527 9.90554C1.77061 9.95087 1.80661 9.99087 1.80527 10.0802C1.76394 10.0615 1.72661 10.0269 1.67327 10.0489C1.75594 10.2109 1.65461 10.4355 1.39594 10.4875C1.48375 10.3921 1.53376 10.2679 1.53661 10.1382C1.53661 9.75354 1.42927 9.68754 1.42927 9.41954C1.42927 9.30687 1.48727 9.18554 1.60127 9.10354V9.10754C1.52794 9.08798 1.47794 9.0522 1.45127 9.0002C1.62394 8.95154 1.87461 8.9522 2.00927 9.00554C2.07001 9.01434 2.12803 9.03655 2.17912 9.07057C2.2302 9.10459 2.27307 9.14955 2.30461 9.2022C2.33689 9.27716 2.35354 9.35792 2.35354 9.43954C2.35354 9.52115 2.33689 9.60191 2.30461 9.67687C2.20194 9.89154 1.71794 10.9175 1.56727 11.2409C1.53474 11.3095 1.51724 11.3843 1.51594 11.4602C1.51594 11.6575 1.69661 11.7262 1.79927 11.7262C1.92261 11.7262 2.04794 11.6322 2.04794 11.5155C2.04794 11.4429 2.00727 11.3975 1.94994 11.3975C1.81061 11.3975 1.81927 11.5155 1.84661 11.5895C1.76061 11.5509 1.70994 11.4809 1.72394 11.4082C1.66961 11.4004 1.62015 11.3726 1.58527 11.3302C1.60101 11.3077 1.62168 11.2891 1.64572 11.2758C1.66975 11.2625 1.69651 11.2549 1.72394 11.2535C1.69594 11.1402 1.77194 11.0929 1.84661 11.0662C1.82327 11.1495 1.80794 11.2455 1.94994 11.2455C2.05327 11.2455 2.13461 11.2629 2.18194 11.3309L2.19394 10.8869C2.19927 10.7549 2.01527 10.7582 1.89861 10.7975C1.94261 10.6449 2.03327 10.5622 2.24261 10.5829C2.21051 10.5702 2.18313 10.5479 2.16426 10.519C2.1454 10.4901 2.13597 10.456 2.13727 10.4215C2.13727 10.2969 2.23794 10.1589 2.30461 10.1175L2.33727 11.4155Z" fill="#FFCC4D"/>
<path d="M2.27128 11.4154C2.27128 11.7481 2.56994 11.9187 2.80461 11.9187C3.12061 11.9187 3.28928 11.7301 3.28928 11.4827C3.29089 11.356 3.25965 11.2311 3.19861 11.1201L2.47394 9.61474C2.44818 9.55158 2.43657 9.48354 2.43994 9.41541C2.43994 9.28007 2.57128 9.17007 2.70861 9.16674C2.83328 9.16341 2.96994 9.28341 2.96994 9.41941C2.96994 9.58474 2.88461 9.65874 2.79594 9.65874C2.68728 9.65874 2.64394 9.61407 2.64394 9.53741C2.64394 9.48474 2.66994 9.46207 2.70661 9.46207C2.79994 9.46207 2.77394 9.58741 2.77394 9.58741C2.78628 9.5848 2.7979 9.57953 2.80799 9.57197C2.81808 9.5644 2.8264 9.55473 2.83237 9.54362C2.83833 9.53252 2.8418 9.52024 2.84254 9.50765C2.84327 9.49506 2.84125 9.48246 2.83661 9.47074C2.87174 9.46355 2.90343 9.44477 2.92661 9.41741C2.90255 9.3919 2.87105 9.37464 2.83661 9.36807C2.85861 9.29541 2.82928 9.26074 2.76661 9.24541C2.77928 9.27341 2.77928 9.29874 2.77528 9.32274C2.67594 9.29474 2.52394 9.33941 2.52394 9.51074C2.52394 9.68074 2.64194 9.82341 2.86394 9.78874C2.81061 9.81474 2.78461 9.86541 2.77928 9.92341C2.81928 9.90807 2.86394 9.90541 2.86394 9.90541C2.83794 9.95074 2.80194 9.99074 2.80328 10.0801C2.84461 10.0614 2.88261 10.0267 2.93528 10.0487C2.85261 10.2107 2.95394 10.4354 3.21261 10.4874C3.1248 10.3919 3.07479 10.2677 3.07194 10.1381C3.07194 9.75341 3.17994 9.68741 3.17994 9.41941C3.17794 9.35696 3.16134 9.29585 3.13148 9.24098C3.10161 9.1861 3.0593 9.13899 3.00794 9.10341V9.10741C3.03937 9.10113 3.06911 9.08825 3.09519 9.06964C3.12128 9.05102 3.14312 9.02708 3.15928 8.99941C2.98661 8.95074 2.73528 8.95141 2.60128 9.00474C2.54054 9.01354 2.48252 9.03575 2.43143 9.06977C2.38035 9.10379 2.33748 9.14875 2.30594 9.20141C2.27366 9.27637 2.25701 9.35712 2.25701 9.43874C2.25701 9.52036 2.27366 9.60111 2.30594 9.67607C2.40861 9.89074 2.89261 10.9167 3.04328 11.2401C3.07528 11.3081 3.09461 11.3801 3.09461 11.4594C3.09461 11.6567 2.91394 11.7254 2.81128 11.7254C2.68794 11.7254 2.56261 11.6314 2.56261 11.5147C2.56261 11.4421 2.60328 11.3967 2.66061 11.3967C2.79994 11.3967 2.79128 11.5147 2.76328 11.5887C2.84928 11.5501 2.89994 11.4801 2.88594 11.4074C2.94049 11.4003 2.99017 11.3723 3.02461 11.3294C3.00888 11.3069 2.9882 11.2883 2.96417 11.275C2.94013 11.2617 2.91337 11.2541 2.88594 11.2527C2.91394 11.1394 2.83794 11.0921 2.76328 11.0654C2.78661 11.1487 2.80194 11.2447 2.66061 11.2447C2.55728 11.2447 2.47594 11.2621 2.42861 11.3301C2.42528 11.2407 2.41661 10.8861 2.41661 10.8861C2.41128 10.7541 2.59461 10.7574 2.71128 10.7967C2.66661 10.6441 2.57661 10.5614 2.36661 10.5821C2.39871 10.5694 2.42608 10.5471 2.44495 10.5182C2.46382 10.4893 2.47325 10.4552 2.47194 10.4207C2.47194 10.2961 2.37061 10.1581 2.30461 10.1167L2.27128 11.4154ZM2.30461 1.98607C2.30461 1.98607 2.46261 1.85341 2.51594 1.91941C2.60194 2.02674 2.25128 2.55941 2.25128 2.74741C2.25128 3.05541 2.45728 3.13874 2.71061 3.18274C2.88128 3.21274 3.15861 3.17074 3.15861 3.17074C3.10528 3.10074 3.07194 3.08007 2.98394 3.07474C3.04457 3.04319 3.09517 2.99532 3.13004 2.93654C3.16491 2.87776 3.18266 2.8104 3.18128 2.74207C3.18128 2.47674 3.07194 2.36741 3.07194 2.06874C3.07194 1.90274 3.20794 1.69141 3.20794 1.69141C2.96794 1.71607 2.84794 1.93807 2.91594 2.11607C2.89768 2.11963 2.87881 2.11863 2.86102 2.11316C2.84323 2.1077 2.82707 2.09794 2.81394 2.08474C2.79661 2.13407 2.82461 2.19141 2.86128 2.24074C2.83128 2.25674 2.80928 2.24674 2.76194 2.23674C2.76661 2.28807 2.79661 2.34141 2.87128 2.39207C2.65461 2.33607 2.52194 2.48674 2.52194 2.64474C2.52194 2.76407 2.60528 2.84874 2.68728 2.84874C2.71394 2.84874 2.75261 2.83807 2.77461 2.82141C2.78994 2.85407 2.78194 2.89807 2.76594 2.93074C2.82594 2.91541 2.86328 2.87941 2.83661 2.80541C2.85687 2.80469 2.87679 2.79996 2.89522 2.79149C2.91364 2.78302 2.9302 2.77098 2.94394 2.75607C2.93091 2.74019 2.91438 2.72753 2.89564 2.71909C2.87691 2.71065 2.85648 2.70665 2.83594 2.70741C2.86928 2.63807 2.83194 2.59941 2.77794 2.56874C2.77794 2.56874 2.81261 2.70741 2.72394 2.70741C2.68394 2.70741 2.64794 2.69407 2.64794 2.63607C2.64794 2.58541 2.69261 2.51474 2.79528 2.51941C2.89794 2.52341 2.98128 2.59007 2.98128 2.75474C2.98128 2.90607 2.85928 2.98074 2.69861 2.98607C2.55394 2.99007 2.44461 2.91141 2.44461 2.76207C2.44461 2.56274 2.73261 2.10941 2.73261 1.93141C2.73261 1.79807 2.61328 1.72341 2.49594 1.72341C2.34394 1.72341 2.21594 1.87407 2.21594 1.87407L2.30461 1.98607Z" fill="#FFCC4D"/>
<path d="M2.30463 1.98607C2.30463 1.98607 2.14663 1.85341 2.0933 1.91941C2.00663 2.02741 2.35797 2.56007 2.35797 2.74807C2.35797 3.05607 2.15197 3.13941 1.89863 3.18341C1.72797 3.21274 1.4513 3.17074 1.4513 3.17074C1.5033 3.10074 1.5373 3.08007 1.6253 3.07474C1.56455 3.04328 1.51381 2.99546 1.47882 2.93667C1.44383 2.87788 1.42598 2.81047 1.4273 2.74207C1.4273 2.47674 1.53663 2.36741 1.53663 2.06874C1.53663 1.90274 1.40063 1.69141 1.40063 1.69141C1.64063 1.71607 1.76063 1.93807 1.69263 2.11607C1.71101 2.11918 1.72985 2.11796 1.74767 2.11253C1.76549 2.10709 1.7818 2.09757 1.7953 2.08474C1.81263 2.13407 1.7853 2.19141 1.74797 2.24074C1.7773 2.25674 1.7993 2.24674 1.8473 2.23674C1.84263 2.28807 1.81197 2.34141 1.73797 2.39207C1.95397 2.33607 2.08663 2.48674 2.08663 2.64474C2.08663 2.76407 2.0033 2.84874 1.9213 2.84874C1.89021 2.84796 1.85996 2.83849 1.83397 2.82141C1.8193 2.85474 1.8273 2.89807 1.84263 2.93074C1.7833 2.91541 1.74597 2.87941 1.77263 2.80607C1.75237 2.80535 1.73245 2.80063 1.71403 2.79216C1.6956 2.78369 1.67904 2.77165 1.6653 2.75674C1.6782 2.74082 1.69459 2.72809 1.71321 2.71954C1.73182 2.71098 1.75216 2.70683 1.77263 2.70741C1.7393 2.63807 1.77663 2.59941 1.83063 2.56874C1.83063 2.56874 1.79597 2.70741 1.88463 2.70741C1.92463 2.70741 1.96063 2.69407 1.96063 2.63607C1.96063 2.58541 1.91597 2.51474 1.8133 2.51941C1.70997 2.52341 1.62663 2.59007 1.62663 2.75407C1.62663 2.90541 1.74863 2.98007 1.9093 2.98541C2.05463 2.98941 2.16397 2.91141 2.16397 2.76141C2.16397 2.56207 1.87597 2.10874 1.87597 1.93074C1.87597 1.79741 1.9953 1.72274 2.11263 1.72274C2.26463 1.72274 2.39263 1.87341 2.39263 1.87341L2.30463 1.98607ZM2.2713 5.58607C2.2713 5.91874 2.56997 6.09007 2.80463 6.09007C3.12063 6.09007 3.2893 5.90074 3.2893 5.65274C3.2893 5.51274 3.2633 5.42474 3.19863 5.29007L2.47397 3.78474C2.44853 3.72173 2.43715 3.65393 2.44063 3.58607C2.44063 3.45141 2.57197 3.34074 2.7093 3.33741C2.83397 3.33474 2.97063 3.45407 2.97063 3.59074C2.97063 3.75674 2.8853 3.83007 2.79663 3.83007C2.68797 3.83007 2.64463 3.78541 2.64463 3.70874C2.64463 3.65541 2.67063 3.63274 2.7073 3.63274C2.80063 3.63274 2.77463 3.75807 2.77463 3.75807C2.78697 3.75546 2.79859 3.7502 2.80868 3.74263C2.81877 3.73507 2.82709 3.7254 2.83306 3.71429C2.83903 3.70318 2.8425 3.69091 2.84323 3.67832C2.84396 3.66573 2.84194 3.65313 2.8373 3.64141C2.87219 3.63408 2.90363 3.61531 2.92663 3.58807C2.90212 3.5628 2.8705 3.54559 2.83597 3.53874C2.85797 3.46674 2.82863 3.43207 2.76597 3.41674C2.77863 3.44474 2.77863 3.47007 2.77463 3.49407C2.6753 3.46607 2.5233 3.51074 2.5233 3.68207C2.5233 3.85207 2.6413 3.99541 2.8633 3.96007C2.80997 3.98541 2.78397 4.03674 2.77863 4.09407C2.80599 4.08465 2.83445 4.07882 2.8633 4.07674C2.8373 4.12207 2.8013 4.16141 2.80263 4.25141C2.84397 4.23274 2.88197 4.19807 2.93463 4.22007C2.85197 4.38274 2.9533 4.60607 3.21197 4.65941C3.12401 4.56377 3.07399 4.43931 3.0713 4.30941C3.0713 3.92407 3.1793 3.85874 3.1793 3.59074C3.1773 3.52829 3.1607 3.46719 3.13083 3.41231C3.10097 3.35743 3.05866 3.31032 3.0073 3.27474V3.27941C3.03864 3.27266 3.06825 3.25953 3.09428 3.24083C3.12032 3.22214 3.14223 3.19828 3.15863 3.17074C2.9853 3.12274 2.73397 3.12341 2.5993 3.17674C2.53868 3.18563 2.48079 3.20789 2.42983 3.2419C2.37887 3.27592 2.3361 3.32083 2.30463 3.37341C2.27235 3.44837 2.2557 3.52912 2.2557 3.61074C2.2557 3.69236 2.27235 3.77311 2.30463 3.84807C2.4073 4.06274 2.8913 5.08874 3.04197 5.41141C3.0745 5.48003 3.092 5.55481 3.0933 5.63074C3.0933 5.82874 2.91263 5.89741 2.80997 5.89741C2.68663 5.89741 2.5613 5.80341 2.5613 5.68674C2.5613 5.61274 2.60197 5.56741 2.6593 5.56741C2.79863 5.56741 2.78997 5.68541 2.76197 5.76007C2.84797 5.72141 2.89863 5.65207 2.88463 5.57874C2.93907 5.57078 2.98854 5.54271 3.0233 5.50007C2.9893 5.45741 2.94797 5.42474 2.88463 5.42407C2.91263 5.31074 2.83663 5.26207 2.76197 5.23541C2.7853 5.31874 2.80063 5.41541 2.6593 5.41541C2.55597 5.41541 2.47463 5.43274 2.4273 5.50007C2.42397 5.41074 2.4153 5.05607 2.4153 5.05607C2.40997 4.92341 2.5933 4.92741 2.70997 4.96674C2.66663 4.81474 2.57663 4.73207 2.36663 4.75274C2.39874 4.74006 2.42611 4.71773 2.44498 4.68884C2.46384 4.65994 2.47328 4.62589 2.47197 4.59141C2.47197 4.46674 2.37063 4.32807 2.30463 4.28741L2.2713 5.58607Z" fill="#FFCC4D"/>
</svg>
