<svg width="16" height="16" viewBox="0 0 16 16" fill="none" xmlns="http://www.w3.org/2000/svg">
<path d="M8 1.25C6.66498 1.25 5.35994 1.64588 4.2499 2.38758C3.13987 3.12928 2.27471 4.18349 1.76382 5.41689C1.25292 6.65029 1.11925 8.00749 1.3797 9.31686C1.64015 10.6262 2.28303 11.829 3.22703 12.773C4.17104 13.717 5.37377 14.3598 6.68314 14.6203C7.99252 14.8808 9.34971 14.7471 10.5831 14.2362C11.8165 13.7253 12.8707 12.8601 13.6124 11.7501C14.3541 10.6401 14.75 9.33502 14.75 8C14.748 6.2104 14.0362 4.49466 12.7708 3.22922C11.5053 1.96378 9.78961 1.25199 8 1.25ZM13.1956 7.25H11.2225C11.1233 5.77922 10.6652 4.35517 9.88813 3.1025C10.7573 3.4391 11.5214 4.00043 12.1026 4.72913C12.6837 5.45783 13.0609 6.32775 13.1956 7.25ZM8 12.9375C7.415 12.2619 6.47125 10.8669 6.28438 8.75H9.71813C9.62476 9.91793 9.25847 11.0476 8.64875 12.0481C8.45694 12.3617 8.23997 12.6591 8 12.9375ZM6.28438 7.25C6.37775 6.08207 6.74403 4.95238 7.35375 3.95187C7.54477 3.63843 7.76089 3.341 8 3.0625C8.585 3.73813 9.52875 5.13313 9.71563 7.25H6.28438ZM6.11188 3.1025C5.33482 4.35517 4.87666 5.77922 4.7775 7.25H2.80438C2.93913 6.32775 3.31634 5.45783 3.89745 4.72913C4.47856 4.00043 5.24274 3.4391 6.11188 3.1025ZM2.80438 8.75H4.7775C4.87666 10.2208 5.33482 11.6448 6.11188 12.8975C5.24274 12.5609 4.47856 11.9996 3.89745 11.2709C3.31634 10.5422 2.93913 9.67225 2.80438 8.75ZM9.88813 12.8975C10.6652 11.6448 11.1233 10.2208 11.2225 8.75H13.1956C13.0609 9.67225 12.6837 10.5422 12.1026 11.2709C11.5214 11.9996 10.7573 12.5609 9.88813 12.8975Z" fill="black"/>
</svg>
