<svg width="16" height="16" viewBox="0 0 16 16" fill="none" xmlns="http://www.w3.org/2000/svg">
<path d="M14.4287 6.82832L10.5737 5.42645L9.17183 1.57145C9.08439 1.33086 8.92502 1.12302 8.71536 0.976147C8.50571 0.829275 8.25593 0.750488 7.99995 0.750488C7.74397 0.750488 7.49419 0.829275 7.28454 0.976147C7.07488 1.12302 6.91552 1.33086 6.82808 1.57145L5.4262 5.42645L1.5712 6.82832C1.33062 6.91576 1.12278 7.07513 0.975903 7.28478C0.82903 7.49444 0.750244 7.74421 0.750244 8.0002C0.750244 8.25618 0.82903 8.50595 0.975903 8.71561C1.12278 8.92526 1.33062 9.08463 1.5712 9.17207L5.4262 10.5739L6.82808 14.4289C6.91552 14.6695 7.07488 14.8774 7.28454 15.0242C7.49419 15.1711 7.74397 15.2499 7.99995 15.2499C8.25593 15.2499 8.50571 15.1711 8.71536 15.0242C8.92502 14.8774 9.08439 14.6695 9.17183 14.4289L10.5737 10.5739L14.4287 9.17207C14.6693 9.08463 14.8771 8.92526 15.024 8.71561C15.1709 8.50595 15.2497 8.25618 15.2497 8.0002C15.2497 7.74421 15.1709 7.49444 15.024 7.28478C14.8771 7.07513 14.6693 6.91576 14.4287 6.82832ZM9.73245 9.28395C9.6294 9.32139 9.53581 9.38098 9.45827 9.45852C9.38074 9.53605 9.32115 9.62964 9.2837 9.7327L7.99995 13.2633L6.7162 9.7327C6.67875 9.62964 6.61916 9.53605 6.54163 9.45852C6.4641 9.38098 6.37051 9.32139 6.26745 9.28395L2.73683 8.0002L6.26745 6.71644C6.37051 6.679 6.4641 6.61941 6.54163 6.54187C6.61916 6.46434 6.67875 6.37075 6.7162 6.26769L7.99995 2.73707L9.2837 6.26769C9.32115 6.37075 9.38074 6.46434 9.45827 6.54187C9.53581 6.61941 9.6294 6.679 9.73245 6.71644L13.2631 8.0002L9.73245 9.28395Z" fill="black"/>
</svg>
