<svg width="24" height="18" viewBox="0 0 24 18" fill="none" xmlns="http://www.w3.org/2000/svg">
<path d="M0.046875 11.6495V16.4047C0.046875 16.7446 0.278437 17.0417 0.608484 17.1228C8.06925 18.9559 15.53 15.0819 22.9908 16.7462C23.4516 16.849 23.8884 16.4963 23.8884 16.0242V11.6495C15.9412 9.38432 7.99406 13.9147 0.046875 11.6495Z" fill="#FF473E"/>
<path d="M0.046875 6.32529V11.6496C7.99406 13.9148 15.9412 9.38445 23.8884 11.6496V6.32529C15.9412 4.0601 7.99406 8.59048 0.046875 6.32529Z" fill="#0B67B2"/>
<path d="M0.046875 1.74323V6.32484C7.99406 8.59002 15.9412 4.05965 23.8884 6.32484V1.36265C23.8884 1.02276 23.6568 0.725712 23.3268 0.644618C15.866 -1.18848 8.40525 2.68551 0.944484 1.02121C0.483703 0.918462 0.046875 1.2711 0.046875 1.74323Z" fill="#E8E8E8"/>
</svg>
