<svg width="18" height="18" viewBox="0 0 18 18" fill="none" xmlns="http://www.w3.org/2000/svg">
<path d="M17.3039 7.97323L13.7882 11.0068L14.8593 15.5435C14.9184 15.7898 14.9032 16.0481 14.8156 16.2857C14.728 16.5234 14.5719 16.7297 14.3671 16.8787C14.1623 17.0276 13.9179 17.1126 13.6648 17.1227C13.4118 17.1329 13.1614 17.0678 12.9453 16.9357L8.99995 14.5076L5.0523 16.9357C4.83622 17.0671 4.58613 17.1315 4.3335 17.121C4.08087 17.1104 3.837 17.0254 3.63261 16.8766C3.42822 16.7277 3.27243 16.5217 3.18488 16.2845C3.09732 16.0473 3.08191 15.7895 3.14058 15.5435L4.21558 11.0068L0.699952 7.97323C0.508778 7.808 0.370518 7.59012 0.302438 7.34678C0.234358 7.10345 0.239475 6.84545 0.317151 6.605C0.394826 6.36456 0.541618 6.15233 0.739193 5.99481C0.936768 5.8373 1.17637 5.74148 1.42808 5.71933L6.03745 5.34745L7.81558 1.04432C7.91182 0.809807 8.07563 0.609207 8.28618 0.468027C8.49673 0.326847 8.7445 0.251465 8.998 0.251465C9.2515 0.251465 9.49927 0.326847 9.70982 0.468027C9.92037 0.609207 10.0842 0.809807 10.1804 1.04432L11.9578 5.34745L16.5671 5.71933C16.8193 5.74065 17.0597 5.83594 17.2579 5.99324C17.4562 6.15053 17.6037 6.36285 17.6819 6.60359C17.76 6.84432 17.7654 7.10277 17.6973 7.34655C17.6292 7.59033 17.4907 7.8086 17.2992 7.97401L17.3039 7.97323Z" fill="#FDB550"/>
</svg>
