<svg width="8" height="8" viewBox="0 0 8 8" fill="none" xmlns="http://www.w3.org/2000/svg">
<path fill-rule="evenodd" clip-rule="evenodd" d="M2.07994 7.20002C2.0137 7.20002 1.94778 7.17954 1.8921 7.13923C1.7961 7.06947 1.74618 6.95235 1.76314 6.83459L2.06042 4.75338L0.893698 3.58637C0.808897 3.50158 0.778817 3.37678 0.815297 3.26254C0.851778 3.14831 0.949058 3.06415 1.06714 3.04463L2.82651 2.7512L3.71355 0.977175C3.76827 0.868058 3.88828 0.79606 4.00156 0.80022C4.12348 0.80086 4.2342 0.870618 4.28764 0.980375L5.13692 2.72496L6.93597 3.04527C7.05341 3.06607 7.14941 3.15055 7.18525 3.26414C7.22109 3.37806 7.19069 3.50222 7.10621 3.58637L5.93917 4.75338L6.23677 6.83459C6.25341 6.95299 6.20349 7.07075 6.10621 7.14019C6.00925 7.20994 5.88125 7.21922 5.77533 7.16546L4.02236 6.27781L2.22171 7.16674C2.17691 7.18914 2.12827 7.20002 2.07994 7.20002Z" fill="#FDB550"/>
</svg>
