<svg width="29" height="27" viewBox="0 0 29 27" fill="none" xmlns="http://www.w3.org/2000/svg">
<path d="M27.7862 12.3574L22.1612 17.2111L23.8749 24.4699C23.9695 24.8639 23.9451 25.2772 23.805 25.6574C23.6648 26.0376 23.4151 26.3677 23.0873 26.6061C22.7596 26.8444 22.3686 26.9803 21.9637 26.9966C21.5588 27.0128 21.1582 26.9087 20.8124 26.6974L14.4999 22.8124L8.18367 26.6974C7.83796 26.9075 7.4378 27.0106 7.0336 26.9938C6.62939 26.9769 6.23921 26.8409 5.91218 26.6027C5.58515 26.3645 5.33589 26.035 5.1958 25.6554C5.05571 25.2759 5.03105 24.8634 5.12492 24.4699L6.84492 17.2111L1.21992 12.3574C0.914045 12.093 0.692828 11.7444 0.5839 11.3551C0.474972 10.9657 0.48316 10.5529 0.607441 10.1682C0.731722 9.78351 0.966588 9.44394 1.28271 9.19192C1.59883 8.93989 1.98219 8.78659 2.38492 8.75114L9.75992 8.15614L12.6049 1.27114C12.7589 0.895912 13.021 0.57495 13.3579 0.349062C13.6948 0.123175 14.0912 0.00256348 14.4968 0.00256348C14.9024 0.00256348 15.2988 0.123175 15.6357 0.349062C15.9726 0.57495 16.2347 0.895912 16.3887 1.27114L19.2324 8.15614L26.6074 8.75114C27.011 8.78527 27.3954 8.93772 27.7127 9.1894C28.03 9.44107 28.2659 9.78078 28.391 10.166C28.516 10.5511 28.5246 10.9647 28.4157 11.3547C28.3068 11.7447 28.0852 12.094 27.7787 12.3586L27.7862 12.3574Z" fill="#B0B0B0"/>
</svg>
