<svg width="44" height="44" viewBox="0 0 44 44" fill="none" xmlns="http://www.w3.org/2000/svg">
<rect width="44" height="44" rx="22" fill="#7573F3"/>
<path d="M29.2806 21.0307C29.211 21.1005 29.1283 21.1558 29.0372 21.1935C28.9462 21.2313 28.8486 21.2507 28.75 21.2507C28.6514 21.2507 28.5538 21.2313 28.4628 21.1935C28.3717 21.1558 28.289 21.1005 28.2194 21.0307L22.75 15.5604V30.2501C22.75 30.449 22.671 30.6398 22.5303 30.7804C22.3897 30.9211 22.1989 31.0001 22 31.0001C21.8011 31.0001 21.6103 30.9211 21.4697 30.7804C21.329 30.6398 21.25 30.449 21.25 30.2501V15.5604L15.7806 21.0307C15.6399 21.1715 15.449 21.2505 15.25 21.2505C15.051 21.2505 14.8601 21.1715 14.7194 21.0307C14.5786 20.89 14.4996 20.6991 14.4996 20.5001C14.4996 20.3011 14.5786 20.1102 14.7194 19.9695L21.4694 13.2195C21.539 13.1497 21.6217 13.0944 21.7128 13.0567C21.8038 13.0189 21.9014 12.9995 22 12.9995C22.0986 12.9995 22.1962 13.0189 22.2872 13.0567C22.3783 13.0944 22.461 13.1497 22.5306 13.2195L29.2806 19.9695C29.3504 20.0391 29.4057 20.1218 29.4434 20.2129C29.4812 20.3039 29.5006 20.4015 29.5006 20.5001C29.5006 20.5987 29.4812 20.6963 29.4434 20.7873C29.4057 20.8784 29.3504 20.9611 29.2806 21.0307Z" fill="white"/>
</svg>
