<svg width="24" height="25" viewBox="0 0 24 25" fill="none" xmlns="http://www.w3.org/2000/svg">
<path d="M14.625 12.5C14.625 13.0192 14.471 13.5267 14.1826 13.9584C13.8942 14.3901 13.4842 14.7265 13.0045 14.9252C12.5249 15.1239 11.9971 15.1758 11.4879 15.0746C10.9787 14.9733 10.511 14.7233 10.1438 14.3562C9.77673 13.989 9.52673 13.5213 9.42544 13.0121C9.32415 12.5029 9.37614 11.9751 9.57482 11.4955C9.7735 11.0158 10.11 10.6058 10.5416 10.3174C10.9733 10.029 11.4808 9.875 12 9.875C12.6962 9.875 13.3639 10.1516 13.8562 10.6438C14.3484 11.1361 14.625 11.8038 14.625 12.5ZM4.5 9.875C3.98083 9.875 3.47331 10.029 3.04163 10.3174C2.60995 10.6058 2.2735 11.0158 2.07482 11.4955C1.87614 11.9751 1.82415 12.5029 1.92544 13.0121C2.02673 13.5213 2.27673 13.989 2.64385 14.3562C3.01096 14.7233 3.47869 14.9733 3.98789 15.0746C4.49709 15.1758 5.02489 15.1239 5.50455 14.9252C5.9842 14.7265 6.39417 14.3901 6.68261 13.9584C6.97105 13.5267 7.125 13.0192 7.125 12.5C7.125 11.8038 6.84844 11.1361 6.35616 10.6438C5.86387 10.1516 5.19619 9.875 4.5 9.875ZM19.5 9.875C18.9808 9.875 18.4733 10.029 18.0416 10.3174C17.61 10.6058 17.2735 11.0158 17.0748 11.4955C16.8761 11.9751 16.8242 12.5029 16.9254 13.0121C17.0267 13.5213 17.2767 13.989 17.6438 14.3562C18.011 14.7233 18.4787 14.9733 18.9879 15.0746C19.4971 15.1758 20.0249 15.1239 20.5045 14.9252C20.9842 14.7265 21.3942 14.3901 21.6826 13.9584C21.971 13.5267 22.125 13.0192 22.125 12.5C22.125 12.1553 22.0571 11.8139 21.9252 11.4955C21.7933 11.177 21.5999 10.8876 21.3562 10.6438C21.1124 10.4001 20.823 10.2067 20.5045 10.0748C20.1861 9.9429 19.8447 9.875 19.5 9.875Z" fill="black"/>
</svg>
