<svg width="24" height="18" viewBox="0 0 24 18" fill="none" xmlns="http://www.w3.org/2000/svg">
<path d="M0 3.00016V5.66683H24V3.00016C24 2.29292 23.719 1.61464 23.219 1.11454C22.7189 0.614448 22.0406 0.333496 21.3333 0.333496H2.66667C1.95942 0.333496 1.28115 0.614448 0.781049 1.11454C0.280952 1.61464 0 2.29292 0 3.00016Z" fill="#0099B5"/>
<path d="M24 15.0002V12.3335H0V15.0002C0 15.7074 0.280952 16.3857 0.781049 16.8858C1.28115 17.3859 1.95942 17.6668 2.66667 17.6668H21.3333C22.0406 17.6668 22.7189 17.3859 23.219 16.8858C23.719 16.3857 24 15.7074 24 15.0002Z" fill="#1EB53A"/>
<path d="M0 5.6665H24V6.6665H0V5.6665ZM0 11.3332H24V12.3332H0V11.3332Z" fill="#CE1126"/>
<path d="M0 8.99984V11.3332H24V6.6665H0V8.99984Z" fill="#EEEEEE"/>
<path d="M2.79998 3.10686C2.80004 2.61535 2.97415 2.13974 3.29143 1.76437C3.60872 1.389 4.04868 1.13811 4.53331 1.05619C4.23497 1.00555 3.92918 1.02061 3.63726 1.10033C3.34534 1.18005 3.07433 1.32251 2.84314 1.51776C2.61195 1.71302 2.42615 1.95636 2.2987 2.23082C2.17125 2.50528 2.10522 2.80425 2.10522 3.10686C2.10522 3.40946 2.17125 3.70843 2.2987 3.98289C2.42615 4.25735 2.61195 4.50069 2.84314 4.69595C3.07433 4.8912 3.34534 5.03366 3.63726 5.11338C3.92918 5.1931 4.23497 5.20816 4.53331 5.15752C4.04868 5.0756 3.60872 4.82472 3.29143 4.44934C2.97415 4.07397 2.80004 3.59836 2.79998 3.10686ZM5.92198 4.64219L5.82865 4.35486L5.73531 4.64219H5.43265L5.67731 4.82019L5.58398 5.10752L5.82865 4.92952L6.07265 5.10752L5.97931 4.82019L6.22398 4.64219H5.92198ZM7.72331 4.64219L7.62998 4.35486L7.53665 4.64219H7.23465L7.47931 4.82019L7.38598 5.10752L7.62998 4.92952L7.87465 5.10752L7.78131 4.82019L8.02598 4.64219H7.72331ZM7.62998 2.69086L7.53665 2.97819H7.23465L7.47931 3.15619L7.38598 3.44352L7.62998 3.26552L7.87465 3.44352L7.78131 3.15619L8.02598 2.97819H7.72331L7.62998 2.69086ZM9.52531 4.64219L9.43198 4.35486L9.33865 4.64219H9.03665L9.28065 4.82019L9.18731 5.10752L9.43198 4.92952L9.67665 5.10752L9.58331 4.82019L9.82731 4.64219H9.52531ZM9.43198 2.69086L9.33865 2.97819H9.03665L9.28065 3.15619L9.18731 3.44352L9.43198 3.26552L9.67665 3.44352L9.58331 3.15619L9.82731 2.97819H9.52531L9.43198 2.69086ZM9.43198 1.02686L9.33865 1.31419H9.03665L9.28065 1.49219L9.18731 1.77952L9.43198 1.60152L9.67665 1.77952L9.58331 1.49219L9.82731 1.31419H9.52531L9.43198 1.02686ZM11.3273 4.64219L11.234 4.35486L11.1406 4.64219H10.838L11.0826 4.82019L10.9893 5.10752L11.234 4.92952L11.478 5.10752L11.3846 4.82019L11.6293 4.64219H11.3273ZM11.234 2.69086L11.1406 2.97819H10.838L11.0826 3.15619L10.9893 3.44352L11.234 3.26552L11.478 3.44352L11.3846 3.15619L11.6293 2.97819H11.3273L11.234 2.69086ZM11.234 1.02686L11.1406 1.31419H10.838L11.0826 1.49219L10.9893 1.77952L11.234 1.60152L11.478 1.77952L11.3846 1.49219L11.6293 1.31419H11.3273L11.234 1.02686ZM13.1286 4.64219L13.0353 4.35486L12.942 4.64219H12.64L12.8846 4.82019L12.7913 5.10752L13.0353 4.92952L13.28 5.10752L13.1866 4.82019L13.4313 4.64219H13.1286ZM13.0353 2.69086L12.942 2.97819H12.64L12.8846 3.15619L12.7913 3.44352L13.0353 3.26552L13.28 3.44352L13.1866 3.15619L13.4313 2.97819H13.1286L13.0353 2.69086ZM13.0353 1.02686L12.942 1.31419H12.64L12.8846 1.49219L12.7913 1.77952L13.0353 1.60152L13.28 1.77952L13.1866 1.49219L13.4313 1.31419H13.1286L13.0353 1.02686Z" fill="white"/>
</svg>
