<svg width="24" height="18" viewBox="0 0 24 18" fill="none" xmlns="http://www.w3.org/2000/svg">
<path d="M23.63 1.66683C23.168 0.872829 22.318 0.333496 21.3333 0.333496H12V1.66683H23.63ZM0 13.6668H24V15.0002H0V13.6668ZM12 8.3335H24V9.66683H12V8.3335ZM12 5.66683H24V7.00016H12V5.66683ZM0 11.0002H24V12.3335H0V11.0002ZM2.66667 17.6668H21.3333C22.318 17.6668 23.168 17.1275 23.63 16.3335H0.37C0.832 17.1275 1.682 17.6668 2.66667 17.6668ZM12 3.00016H24V4.3335H12V3.00016Z" fill="#B22334"/>
<path d="M0.0453333 15.4525C0.0564444 15.5147 0.0695556 15.5763 0.0846667 15.6372C0.102444 15.7038 0.122889 15.7696 0.146 15.8345C0.205333 16.0072 0.277333 16.1738 0.368 16.3298L0.37 16.3332H23.63L23.6313 16.3305C23.7217 16.1738 23.7958 16.0083 23.8527 15.8365C23.8959 15.7112 23.9298 15.5828 23.954 15.4525C23.9813 15.3058 24 15.1552 24 14.9998H0C0 15.1552 0.0186667 15.3052 0.0453333 15.4525ZM0 12.3332H24V13.6665H0V12.3332ZM0 9.6665V10.9998H24V9.6665H12H0ZM12 6.99984H24V8.33317H12V6.99984ZM12 4.33317H24V5.6665H12V4.33317ZM0.0853333 2.3625C0.102 2.2945 0.125333 2.22984 0.146667 2.1645C0.123664 2.22968 0.103204 2.29573 0.0853333 2.3625ZM12 2.99984H24C24 2.8445 23.9813 2.69384 23.954 2.5465C23.9307 2.4159 23.8966 2.28746 23.852 2.1625C23.7951 1.99004 23.7207 1.82385 23.63 1.6665H12V2.99984Z" fill="#EEEEEE"/>
<path d="M12 0.333496H2.66667C1.95942 0.333496 1.28115 0.614448 0.781049 1.11454C0.280952 1.61464 0 2.29292 0 3.00016L0 9.66683H12V0.333496Z" fill="#3C3B6E"/>
<path d="M1.33398 2.1505L1.74598 2.44984L1.58865 2.93317L1.99998 2.6345L2.41198 2.93317L2.25465 2.44984L2.66665 2.1505H2.15732L1.99998 1.6665L1.84332 2.1505H1.33398ZM2.66732 3.48384L3.07932 3.78317L2.92198 4.2665L3.33332 3.96784L3.74532 4.2665L3.58798 3.78317L3.99998 3.48384H3.49065L3.33332 2.99984L3.17665 3.48384H2.66732ZM5.33398 3.48384L5.74599 3.78317L5.58865 4.2665L5.99998 3.96784L6.41198 4.2665L6.25465 3.78317L6.66665 3.48384H6.15732L5.99998 2.99984L5.84332 3.48384H5.33398ZM8.00065 3.48384L8.41265 3.78317L8.25532 4.2665L8.66665 3.96784L9.07865 4.2665L8.92132 3.78317L9.33332 3.48384H8.82399L8.66665 2.99984L8.50998 3.48384H8.00065ZM2.66732 6.1505L3.07932 6.44984L2.92198 6.93317L3.33332 6.6345L3.74532 6.93317L3.58798 6.44984L3.99998 6.1505H3.49065L3.33332 5.6665L3.17665 6.1505H2.66732ZM5.33398 6.1505L5.74599 6.44984L5.58865 6.93317L5.99998 6.6345L6.41198 6.93317L6.25465 6.44984L6.66665 6.1505H6.15732L5.99998 5.6665L5.84332 6.1505H5.33398ZM8.00065 6.1505L8.41265 6.44984L8.25532 6.93317L8.66665 6.6345L9.07865 6.93317L8.92132 6.44984L9.33332 6.1505H8.82399L8.66665 5.6665L8.50998 6.1505H8.00065ZM4.00065 2.1505L4.41265 2.44984L4.25532 2.93317L4.66665 2.6345L5.07865 2.93317L4.92132 2.44984L5.33332 2.1505H4.82398L4.66665 1.6665L4.50998 2.1505H4.00065ZM6.66732 2.1505L7.07932 2.44984L6.92198 2.93317L7.33332 2.6345L7.74532 2.93317L7.58799 2.44984L7.99998 2.1505H7.49065L7.33332 1.6665L7.17665 2.1505H6.66732ZM9.33398 2.1505L9.74599 2.44984L9.58865 2.93317L9.99998 2.6345L10.412 2.93317L10.2547 2.44984L10.6667 2.1505H10.1573L9.99998 1.6665L9.84332 2.1505H9.33398ZM1.33398 4.81717L1.74598 5.1165L1.58865 5.59984L1.99998 5.30117L2.41198 5.59984L2.25465 5.1165L2.66665 4.81717H2.15732L1.99998 4.33317L1.84332 4.81717H1.33398ZM4.25532 5.59984L4.66665 5.30117L5.07865 5.59984L4.92132 5.1165L5.33332 4.81717H4.82398L4.66665 4.33317L4.50998 4.81717H4.00065L4.41265 5.1165L4.25532 5.59984ZM6.66732 4.81717L7.07932 5.1165L6.92198 5.59984L7.33332 5.30117L7.74532 5.59984L7.58799 5.1165L7.99998 4.81717H7.49065L7.33332 4.33317L7.17665 4.81717H6.66732ZM9.33398 4.81717L9.74599 5.1165L9.58865 5.59984L9.99998 5.30117L10.412 5.59984L10.2547 5.1165L10.6667 4.81717H10.1573L9.99998 4.33317L9.84332 4.81717H9.33398ZM1.33398 7.48384L1.74598 7.78317L1.58865 8.2665L1.99998 7.96784L2.41198 8.2665L2.25465 7.78317L2.66665 7.48384H2.15732L1.99998 6.99984L1.84332 7.48384H1.33398ZM4.25532 8.2665L4.66665 7.96784L5.07865 8.2665L4.92132 7.78317L5.33332 7.48384H4.82398L4.66665 6.99984L4.50998 7.48384H4.00065L4.41265 7.78317L4.25532 8.2665ZM6.66732 7.48384L7.07932 7.78317L6.92198 8.2665L7.33332 7.96784L7.74532 8.2665L7.58799 7.78317L7.99998 7.48384H7.49065L7.33332 6.99984L7.17665 7.48384H6.66732ZM9.33398 7.48384L9.74599 7.78317L9.58865 8.2665L9.99998 7.96784L10.412 8.2665L10.2547 7.78317L10.6667 7.48384H10.1573L9.99998 6.99984L9.84332 7.48384H9.33398Z" fill="white"/>
</svg>
