<svg width="18" height="18" viewBox="0 0 18 18" fill="none" xmlns="http://www.w3.org/2000/svg">
<path d="M14.625 2.25H3.375C3.07663 2.25 2.79048 2.36853 2.5795 2.5795C2.36853 2.79048 2.25 3.07663 2.25 3.375V14.625C2.25 14.9234 2.36853 15.2095 2.5795 15.4205C2.79048 15.6315 3.07663 15.75 3.375 15.75H14.625C14.9234 15.75 15.2095 15.6315 15.4205 15.4205C15.6315 15.2095 15.75 14.9234 15.75 14.625V3.375C15.75 3.07663 15.6315 2.79048 15.4205 2.5795C15.2095 2.36853 14.9234 2.25 14.625 2.25ZM10.1644 12.2105L8.65617 13.7187C8.07345 14.2862 7.29063 14.6015 6.47719 14.5961C5.66375 14.5908 4.88515 14.2653 4.30995 13.6901C3.73475 13.1149 3.40923 12.3363 3.40388 11.5228C3.39852 10.7094 3.71375 9.92655 4.28133 9.34383L5.78953 7.83492C5.84175 7.78266 5.90375 7.74119 5.97199 7.71289C6.04023 7.68459 6.11337 7.67001 6.18725 7.66997C6.26113 7.66994 6.33429 7.68446 6.40255 7.7127C6.47082 7.74094 6.53286 7.78235 6.58512 7.83457C6.63738 7.88679 6.67884 7.94878 6.70715 8.01703C6.73545 8.08527 6.75003 8.15841 6.75006 8.23229C6.7501 8.30617 6.73558 8.37933 6.70734 8.44759C6.6791 8.51586 6.63768 8.57789 6.58547 8.63016L5.07656 10.1391C4.70733 10.5083 4.4999 11.0091 4.4999 11.5312C4.4999 12.0534 4.70733 12.5542 5.07656 12.9234C5.44579 13.2927 5.94658 13.5001 6.46875 13.5001C6.99092 13.5001 7.49171 13.2927 7.86094 12.9234L9.36914 11.4145C9.47469 11.3091 9.61781 11.2499 9.76701 11.2499C9.91621 11.25 10.0593 11.3093 10.1647 11.4149C10.2702 11.5204 10.3294 11.6635 10.3293 11.8127C10.3293 11.962 10.2699 12.105 10.1644 12.2105ZM7.71047 11.0855C7.65821 11.1377 7.59616 11.1792 7.52788 11.2075C7.4596 11.2358 7.38641 11.2503 7.3125 11.2503C7.23859 11.2503 7.1654 11.2358 7.09712 11.2075C7.02884 11.1792 6.96679 11.1377 6.91453 11.0855C6.86227 11.0332 6.82081 10.9712 6.79253 10.9029C6.76424 10.8346 6.74969 10.7614 6.74969 10.6875C6.74969 10.6136 6.76424 10.5404 6.79253 10.4721C6.82081 10.4038 6.86227 10.3418 6.91453 10.2895L10.2895 6.91453C10.3418 6.86227 10.4038 6.82081 10.4721 6.79253C10.5404 6.76424 10.6136 6.74969 10.6875 6.74969C10.7614 6.74969 10.8346 6.76424 10.9029 6.79253C10.9712 6.82081 11.0332 6.86227 11.0855 6.91453C11.1377 6.96679 11.1792 7.02884 11.2075 7.09712C11.2358 7.1654 11.2503 7.23859 11.2503 7.3125C11.2503 7.38641 11.2358 7.4596 11.2075 7.52788C11.1792 7.59616 11.1377 7.65821 11.0855 7.71047L7.71047 11.0855ZM13.7187 8.65617L12.2105 10.1644C12.105 10.2699 11.962 10.3293 11.8127 10.3293C11.6635 10.3294 11.5204 10.2702 11.4149 10.1647C11.3093 10.0593 11.25 9.91621 11.2499 9.76701C11.2499 9.61781 11.3091 9.47469 11.4145 9.36914L12.9234 7.86094C13.2927 7.49171 13.5001 6.99092 13.5001 6.46875C13.5001 5.94658 13.2927 5.44579 12.9234 5.07656C12.5542 4.70733 12.0534 4.4999 11.5312 4.4999C11.0091 4.4999 10.5083 4.70733 10.1391 5.07656L8.63016 6.58547C8.52461 6.69092 8.38149 6.75013 8.23229 6.75006C8.08309 6.75 7.94003 6.69066 7.83457 6.58512C7.72912 6.47957 7.66991 6.33645 7.66997 6.18725C7.67004 6.03805 7.72937 5.89499 7.83492 5.78953L9.34383 4.28133C9.92655 3.71375 10.7094 3.39852 11.5228 3.40388C12.3363 3.40923 13.1149 3.73475 13.6901 4.30995C14.2653 4.88515 14.5908 5.66375 14.5961 6.47719C14.6015 7.29063 14.2862 8.07345 13.7187 8.65617Z" fill="#7573F3"/>
</svg>
