<svg width="26" height="26" viewBox="0 0 26 26" fill="none" xmlns="http://www.w3.org/2000/svg">
<path d="M13 13C13 13.2155 12.9144 13.4222 12.762 13.5745C12.6097 13.7269 12.403 13.8125 12.1875 13.8125H4.875C4.65951 13.8125 4.45285 13.7269 4.30048 13.5745C4.1481 13.4222 4.0625 13.2155 4.0625 13C4.0625 12.7845 4.1481 12.5778 4.30048 12.4255C4.45285 12.2731 4.65951 12.1875 4.875 12.1875H12.1875C12.403 12.1875 12.6097 12.2731 12.762 12.4255C12.9144 12.5778 13 12.7845 13 13ZM4.875 7.3125H18.6875C18.903 7.3125 19.1097 7.2269 19.262 7.07452C19.4144 6.92215 19.5 6.71549 19.5 6.5C19.5 6.28451 19.4144 6.07785 19.262 5.92548C19.1097 5.7731 18.903 5.6875 18.6875 5.6875H4.875C4.65951 5.6875 4.45285 5.7731 4.30048 5.92548C4.1481 6.07785 4.0625 6.28451 4.0625 6.5C4.0625 6.71549 4.1481 6.92215 4.30048 7.07452C4.45285 7.2269 4.65951 7.3125 4.875 7.3125ZM10.5625 18.6875H4.875C4.65951 18.6875 4.45285 18.7731 4.30048 18.9255C4.1481 19.0778 4.0625 19.2845 4.0625 19.5C4.0625 19.7155 4.1481 19.9222 4.30048 20.0745C4.45285 20.2269 4.65951 20.3125 4.875 20.3125H10.5625C10.778 20.3125 10.9847 20.2269 11.137 20.0745C11.2894 19.9222 11.375 19.7155 11.375 19.5C11.375 19.2845 11.2894 19.0778 11.137 18.9255C10.9847 18.7731 10.778 18.6875 10.5625 18.6875ZM23.3248 16.4877C23.2494 16.4121 23.1598 16.3522 23.0611 16.3113C22.9625 16.2704 22.8568 16.2494 22.75 16.2494C22.6432 16.2494 22.5375 16.2704 22.4389 16.3113C22.3402 16.3522 22.2506 16.4121 22.1752 16.4877L19.5 19.1638V11.375C19.5 11.1595 19.4144 10.9528 19.262 10.8005C19.1097 10.6481 18.903 10.5625 18.6875 10.5625C18.472 10.5625 18.2653 10.6481 18.113 10.8005C17.9606 10.9528 17.875 11.1595 17.875 11.375V19.1638L15.1998 16.4877C15.0474 16.3352 14.8406 16.2495 14.625 16.2495C14.4094 16.2495 14.2026 16.3352 14.0502 16.4877C13.8977 16.6401 13.812 16.8469 13.812 17.0625C13.812 17.2781 13.8977 17.4849 14.0502 17.6373L18.1127 21.6998C18.1881 21.7754 18.2777 21.8353 18.3764 21.8762C18.475 21.9171 18.5807 21.9381 18.6875 21.9381C18.7943 21.9381 18.9 21.9171 18.9986 21.8762C19.0973 21.8353 19.1869 21.7754 19.2623 21.6998L23.3248 17.6373C23.4004 17.5619 23.4603 17.4723 23.5012 17.3736C23.5421 17.275 23.5631 17.1693 23.5631 17.0625C23.5631 16.9557 23.5421 16.85 23.5012 16.7514C23.4603 16.6527 23.4004 16.5631 23.3248 16.4877Z" fill="#B0B0B0"/>
</svg>
