<svg width="14" height="15" viewBox="0 0 14 15" fill="none" xmlns="http://www.w3.org/2000/svg">
<path d="M5.55953 2.81537L9.93453 7.19037C9.97521 7.231 10.0075 7.27925 10.0295 7.33236C10.0515 7.38547 10.0628 7.44241 10.0628 7.4999C10.0628 7.55739 10.0515 7.61432 10.0295 7.66744C10.0075 7.72055 9.97521 7.7688 9.93453 7.80943L5.55953 12.1844C5.49834 12.2457 5.42036 12.2874 5.33545 12.3043C5.25053 12.3212 5.16251 12.3126 5.08253 12.2794C5.00254 12.2463 4.93419 12.1902 4.88612 12.1181C4.83805 12.0461 4.81243 11.9615 4.8125 11.8749L4.8125 3.1249C4.81243 3.03832 4.83805 2.95367 4.88612 2.88166C4.93419 2.80965 5.00254 2.75352 5.08253 2.72038C5.16251 2.68724 5.25053 2.67857 5.33545 2.69548C5.42036 2.71239 5.49834 2.75411 5.55953 2.81537Z" fill="#605B5B"/>
</svg>
