<svg width="12" height="12" viewBox="0 0 12 12" fill="none" xmlns="http://www.w3.org/2000/svg">
<path d="M1.03558 9.76513C0.72366 10.077 0.717294 10.6309 1.04195 10.9555C1.37296 11.2802 1.92678 11.2738 2.23234 10.9682L6.00084 7.19974L9.76299 10.9619C10.0813 11.2802 10.6287 11.2802 10.9534 10.9555C11.278 10.6245 11.278 10.0834 10.9597 9.76513L7.1976 6.00299L10.9597 2.23448C11.278 1.9162 11.2844 1.36875 10.9534 1.04409C10.6287 0.719443 10.0813 0.719443 9.76299 1.03773L6.00084 4.79987L2.23234 1.03773C1.92678 0.725809 1.3666 0.713078 1.04195 1.04409C0.717294 1.36875 0.72366 1.92893 1.03558 2.23448L4.79772 6.00299L1.03558 9.76513Z" fill="#3C3C43" fill-opacity="0.6"/>
</svg>
