<svg width="18" height="18" viewBox="0 0 18 18" fill="none" xmlns="http://www.w3.org/2000/svg">
<path d="M12.375 1.125H5.625C5.17745 1.125 4.74822 1.30279 4.43176 1.61926C4.11529 1.93572 3.9375 2.36495 3.9375 2.8125V15.1875C3.9375 15.6351 4.11529 16.0643 4.43176 16.3807C4.74822 16.6972 5.17745 16.875 5.625 16.875H12.375C12.8226 16.875 13.2518 16.6972 13.5682 16.3807C13.8847 16.0643 14.0625 15.6351 14.0625 15.1875V2.8125C14.0625 2.36495 13.8847 1.93572 13.5682 1.61926C13.2518 1.30279 12.8226 1.125 12.375 1.125ZM5.625 2.25H12.375C12.5242 2.25 12.6673 2.30926 12.7727 2.41475C12.8782 2.52024 12.9375 2.66332 12.9375 2.8125V3.375H5.0625V2.8125C5.0625 2.66332 5.12176 2.52024 5.22725 2.41475C5.33274 2.30926 5.47582 2.25 5.625 2.25ZM12.375 15.75H5.625C5.47582 15.75 5.33274 15.6907 5.22725 15.5852C5.12176 15.4798 5.0625 15.3367 5.0625 15.1875V14.625H12.9375V15.1875C12.9375 15.3367 12.8782 15.4798 12.7727 15.5852C12.6673 15.6907 12.5242 15.75 12.375 15.75Z" fill="#7573F3"/>
</svg>
