<svg width="16" height="17" viewBox="0 0 16 17" fill="none" xmlns="http://www.w3.org/2000/svg">
<path d="M7.89363 11.6063L7.89487 11.6076C7.90879 11.6216 7.92533 11.6327 7.94356 11.6403C7.96178 11.6479 7.98133 11.6518 8.00107 11.6518C8.02081 11.6518 8.04036 11.648 8.0586 11.6404L7.89363 11.6063ZM7.89363 11.6063L2.89363 6.60633C2.86526 6.57796 2.84932 6.53948 2.84932 6.49935C2.84932 6.45922 2.86526 6.42074 2.89363 6.39236L2.47219 5.97092M7.89363 11.6063L2.47219 5.97092M2.47219 5.97092L2.89364 6.39236C2.92201 6.36399 2.96049 6.34805 3.00062 6.34805C3.04072 6.34805 3.07918 6.36396 3.10755 6.3923C3.10757 6.39232 3.10759 6.39234 3.10761 6.39236L7.57567 10.8617L7.99988 11.286M2.47219 5.97092L7.99988 11.286M7.99988 11.286L8.4242 10.8618M7.99988 11.286L8.4242 10.8618M8.4242 10.8618L12.8936 6.39367L12.8936 6.39361M8.4242 10.8618L12.8936 6.39361M12.8936 6.39361C12.9077 6.37956 12.9244 6.36842 12.9427 6.36081C12.9611 6.35321 12.9808 6.3493 13.0006 6.3493C13.0205 6.3493 13.0402 6.35321 13.0585 6.36081C13.0769 6.36842 13.0936 6.37956 13.1076 6.39361C13.1217 6.40766 13.1328 6.42434 13.1404 6.4427C13.148 6.46105 13.1519 6.48073 13.1519 6.5006C13.1519 6.52047 13.148 6.54014 13.1404 6.5585C13.1328 6.57686 13.1217 6.59353 13.1076 6.60758L8.10761 11.6076L8.10737 11.6078M12.8936 6.39361L8.10737 11.6078M8.10737 11.6078C8.09342 11.6218 8.07685 11.6329 8.05861 11.6404L8.10737 11.6078Z" fill="black" stroke="#21252C" stroke-width="1.2"/>
</svg>
