<svg width="18" height="18" viewBox="0 0 18 18" fill="none" xmlns="http://www.w3.org/2000/svg">
<path d="M12.5489 9.17142L12.5477 9.17266L6.92269 14.7977C6.8767 14.8436 6.81433 14.8695 6.7493 14.8695C6.68426 14.8695 6.62189 14.8436 6.5759 14.7977C6.52992 14.7517 6.50408 14.6893 6.50408 14.6243C6.50408 14.5592 6.52992 14.4969 6.5759 14.4509L11.6039 9.42429L12.0282 9.00009L11.604 8.57576L6.57737 3.54772L6.57731 3.54766C6.55454 3.52489 6.53648 3.49786 6.52416 3.46811C6.51183 3.43835 6.50549 3.40647 6.50549 3.37427C6.50549 3.34206 6.51183 3.31018 6.52416 3.28043C6.53648 3.25068 6.55454 3.22365 6.57731 3.20087C6.60008 3.1781 6.62711 3.16004 6.65686 3.14772C6.68662 3.1354 6.7185 3.12905 6.7507 3.12905C6.7829 3.12905 6.81479 3.1354 6.84454 3.14772C6.87429 3.16004 6.90133 3.1781 6.9241 3.20087L12.5491 8.82587L12.5493 8.82611C12.572 8.84878 12.59 8.87571 12.6023 8.90536C12.6146 8.935 12.6209 8.96677 12.6208 8.99885C12.6208 9.03093 12.6144 9.06269 12.6021 9.09231C12.5897 9.12192 12.5717 9.14881 12.5489 9.17142Z" fill="black" stroke="#999999" stroke-width="1.2"/>
</svg>
