<svg width="32" height="32" viewBox="0 0 32 32" fill="none" xmlns="http://www.w3.org/2000/svg">
<path d="M31.375 15.3912C31.3288 15.29 30.2338 12.8587 27.815 10.44C24.5788 7.20875 20.5 5.5 16 5.5C11.5 5.5 7.42125 7.20875 4.18875 10.44C1.77 12.8587 0.675002 15.29 0.625002 15.3912C0.540319 15.5832 0.496582 15.7908 0.496582 16.0006C0.496582 16.2105 0.540319 16.418 0.625002 16.61C0.671252 16.7125 1.76625 19.1425 4.18625 21.5613C7.42125 24.7925 11.5 26.5 16 26.5C20.5 26.5 24.5788 24.7925 27.81 21.5613C30.23 19.1425 31.325 16.7125 31.3713 16.61C31.4565 16.4183 31.5009 16.2109 31.5015 16.001C31.5022 15.7912 31.4591 15.5835 31.375 15.3912ZM25.6175 19.5163C22.9338 22.1588 19.6988 23.5 16 23.5C12.3013 23.5 9.06625 22.1587 6.38625 19.515C5.33168 18.4715 4.42455 17.2889 3.69 16C4.42477 14.7116 5.33188 13.5294 6.38625 12.4862C9.0675 9.84125 12.3013 8.5 16 8.5C19.6988 8.5 22.9325 9.84125 25.6138 12.4862C26.6682 13.5293 27.5754 14.7115 28.31 16C27.5753 17.2889 26.6682 18.4714 25.6138 19.515L25.6175 19.5163ZM16 10.5C14.9122 10.5 13.8488 10.8226 12.9444 11.4269C12.0399 12.0313 11.3349 12.8902 10.9187 13.8952C10.5024 14.9002 10.3935 16.0061 10.6057 17.073C10.8179 18.1399 11.3417 19.1199 12.1109 19.8891C12.8801 20.6583 13.8601 21.1821 14.927 21.3943C15.9939 21.6065 17.0998 21.4976 18.1048 21.0813C19.1098 20.6651 19.9687 19.9601 20.5731 19.0556C21.1774 18.1512 21.5 17.0878 21.5 16C21.4983 14.5418 20.9184 13.1438 19.8873 12.1127C18.8562 11.0816 17.4582 10.5017 16 10.5ZM16 18.5C15.5055 18.5 15.0222 18.3534 14.6111 18.0787C14.2 17.804 13.8795 17.4135 13.6903 16.9567C13.5011 16.4999 13.4516 15.9972 13.548 15.5123C13.6445 15.0273 13.8826 14.5819 14.2322 14.2322C14.5819 13.8826 15.0273 13.6445 15.5123 13.548C15.9972 13.4516 16.4999 13.5011 16.9567 13.6903C17.4135 13.8795 17.804 14.2 18.0787 14.6111C18.3534 15.0222 18.5 15.5055 18.5 16C18.5 16.663 18.2366 17.2989 17.7678 17.7678C17.2989 18.2366 16.663 18.5 16 18.5Z" fill="black"/>
</svg>
