<svg width="32" height="32" viewBox="0 0 32 32" fill="none" xmlns="http://www.w3.org/2000/svg">
<path d="M7.11 3.99125C6.97828 3.84277 6.81839 3.7219 6.6396 3.63566C6.46082 3.54942 6.2667 3.49952 6.06849 3.48886C5.87028 3.4782 5.67192 3.50698 5.48492 3.57354C5.29792 3.6401 5.12598 3.74312 4.97908 3.87661C4.83219 4.01011 4.71325 4.17144 4.62916 4.35124C4.54507 4.53105 4.4975 4.72575 4.48921 4.92408C4.48093 5.1224 4.51209 5.3204 4.58089 5.50659C4.64968 5.69278 4.75475 5.86347 4.89 6.00875L6.89 8.215C2.58375 11.0825 0.715002 15.1975 0.625002 15.3913C0.540319 15.5832 0.496582 15.7908 0.496582 16.0006C0.496582 16.2105 0.540319 16.418 0.625002 16.61C0.671252 16.7125 1.76625 19.1425 4.18625 21.5613C7.42125 24.7925 11.5 26.5 16 26.5C18.187 26.5121 20.3545 26.0871 22.375 25.25L24.8863 28.0125C25.1552 28.3014 25.5272 28.4727 25.9215 28.4891C26.3159 28.5056 26.7009 28.366 26.993 28.1005C27.2851 27.8351 27.4608 27.4652 27.482 27.071C27.5032 26.6769 27.3682 26.2903 27.1063 25.995L7.11 3.99125ZM16 23.5C12.3013 23.5 9.06625 22.1588 6.38625 19.515C5.33207 18.4712 4.42498 17.2887 3.69 16C4.34875 14.8363 6.03875 12.2625 8.94 10.4638L20.2013 22.8525C18.8432 23.2861 17.4256 23.5046 16 23.5ZM31.375 16.61C31.33 16.7113 30.25 19.11 27.875 21.505C27.739 21.656 27.5738 21.7777 27.3893 21.8629C27.2048 21.9481 27.0049 21.9949 26.8018 22.0004C26.5987 22.006 26.3966 21.9703 26.2077 21.8954C26.0188 21.8205 25.8471 21.708 25.703 21.5648C25.5589 21.4215 25.4454 21.2505 25.3694 21.0621C25.2934 20.8736 25.2565 20.6717 25.2609 20.4686C25.2653 20.2654 25.3109 20.0653 25.395 19.8803C25.4791 19.6954 25.5998 19.5294 25.75 19.3925C26.7476 18.3782 27.6083 17.2377 28.31 16C27.5755 14.7111 26.6683 13.5285 25.6138 12.485C22.9325 9.84125 19.6988 8.5 16 8.5C15.5813 8.5 15.1625 8.5175 14.75 8.5525C14.5512 8.5738 14.3502 8.55514 14.1587 8.49763C13.9672 8.44012 13.7892 8.34492 13.6351 8.21761C13.4809 8.09031 13.3538 7.93347 13.2611 7.75633C13.1684 7.57918 13.1121 7.3853 13.0954 7.18607C13.0788 6.98685 13.1021 6.7863 13.1641 6.59622C13.226 6.40614 13.3253 6.23036 13.4562 6.07922C13.587 5.92808 13.7468 5.80461 13.926 5.71609C14.1053 5.62757 14.3004 5.57578 14.5 5.56375C14.9913 5.52125 15.5 5.5 16 5.5C20.5 5.5 24.5788 7.20875 27.8113 10.44C30.23 12.8588 31.325 15.29 31.3713 15.3913C31.4565 15.583 31.5009 15.7904 31.5015 16.0002C31.5022 16.2101 31.4591 16.4177 31.375 16.61Z" fill="black"/>
</svg>
